<svg width="21" height="21" viewBox="0 0 21 21" fill="none" xmlns="http://www.w3.org/2000/svg">
<path d="M10.2783 1.87305C11.1624 1.87305 12.0106 2.22351 12.6357 2.84863C13.2609 3.47375 13.6113 4.322 13.6113 5.20605V6.03906H16.1113C16.3323 6.03906 16.5449 6.12692 16.7012 6.2832C16.8575 6.43948 16.9453 6.65203 16.9453 6.87305V16.0391C16.9453 16.7021 16.6817 17.3388 16.2129 17.8076C15.7441 18.2763 15.1082 18.539 14.4453 18.5391H6.11133C5.44848 18.539 4.8125 18.2763 4.34375 17.8076C3.87491 17.3388 3.61133 16.7021 3.61133 16.0391V6.87305C3.61133 6.65203 3.69919 6.43948 3.85547 6.2832C4.01175 6.12692 4.2243 6.03906 4.44531 6.03906H6.94531V5.20605C6.94531 4.322 7.29578 3.47375 7.9209 2.84863C8.54602 2.22351 9.39427 1.87305 10.2783 1.87305ZM13.5244 9.25098C13.3973 9.25098 13.2858 9.29827 13.1904 9.39355L9.14844 13.4355L7.45605 11.7305C7.36068 11.6354 7.24719 11.5872 7.11621 11.5869C6.98527 11.5866 6.87204 11.6348 6.77637 11.7305C6.68071 11.8261 6.6308 11.9394 6.62695 12.0703C6.62314 12.2013 6.66927 12.3148 6.76465 12.4102L8.81445 14.4609C8.90975 14.5562 9.0214 14.6034 9.14844 14.6035C9.27549 14.6035 9.3871 14.5561 9.48242 14.4609L13.8584 10.0732C13.9536 9.97823 14.001 9.86459 14.001 9.7334C14.0009 9.6023 13.9536 9.48882 13.8584 9.39355C13.7631 9.29825 13.6515 9.25105 13.5244 9.25098ZM10.2783 3.53906C9.83629 3.53906 9.41217 3.71478 9.09961 4.02734C8.78705 4.3399 8.61133 4.76403 8.61133 5.20605V6.03906H11.9453V5.20605C11.9453 4.76403 11.7696 4.3399 11.457 4.02734C11.1445 3.71478 10.7203 3.53906 10.2783 3.53906Z" fill="#404750"/>
</svg>
