<svg width="24" height="25" viewBox="0 0 24 25" fill="none" xmlns="http://www.w3.org/2000/svg">
<path d="M3.68725 7.34785C3.59178 7.25764 3.47947 7.18711 3.35674 7.14029C3.23401 7.09347 3.10327 7.07129 2.97196 7.075C2.84066 7.07872 2.71138 7.10826 2.59149 7.16194C2.47161 7.21562 2.36347 7.29238 2.27325 7.38785C2.18303 7.48332 2.1125 7.59563 2.06568 7.71836C2.01887 7.84109 1.99669 7.97184 2.0004 8.10314C2.00411 8.23444 2.03365 8.36373 2.08733 8.48361C2.14101 8.6035 2.21778 8.71164 2.31325 8.80185L11.3132 17.3019C11.4989 17.4774 11.7447 17.5752 12.0002 17.5752C12.2558 17.5752 12.5016 17.4774 12.6872 17.3019L21.6882 8.80185C21.7858 8.71223 21.8646 8.60412 21.92 8.48379C21.9754 8.36346 22.0064 8.23332 22.0111 8.10093C22.0158 7.96853 21.9942 7.83652 21.9474 7.71257C21.9007 7.58861 21.8298 7.47518 21.7388 7.37886C21.6479 7.28254 21.5387 7.20525 21.4176 7.15148C21.2965 7.09771 21.166 7.06854 21.0335 7.06566C20.9011 7.06277 20.7694 7.08623 20.6461 7.13468C20.5228 7.18312 20.4103 7.25558 20.3152 7.34785L12.0002 15.1999L3.68725 7.34785Z" fill="white"/>
</svg>
