<svg width="24" height="25" viewBox="0 0 24 25" fill="none" xmlns="http://www.w3.org/2000/svg">
<path d="M20.3128 17.2928C20.4082 17.383 20.5205 17.4535 20.6433 17.5003C20.766 17.5471 20.8967 17.5693 21.028 17.5656C21.1593 17.5619 21.2886 17.5324 21.4085 17.4787C21.5284 17.425 21.6365 17.3482 21.7268 17.2528C21.817 17.1573 21.8875 17.045 21.9343 16.9223C21.9811 16.7995 22.0033 16.6688 21.9996 16.5375C21.9959 16.4062 21.9663 16.2769 21.9127 16.157C21.859 16.0371 21.7822 15.929 21.6868 15.8388L12.6868 7.33877C12.5011 7.16324 12.2553 7.06543 11.9998 7.06543C11.7442 7.06543 11.4984 7.16324 11.3128 7.33877L2.31175 15.8388C2.21419 15.9284 2.13541 16.0365 2.07998 16.1568C2.02456 16.2772 1.9936 16.4073 1.98889 16.5397C1.98419 16.6721 2.00584 16.8041 2.05258 16.9281C2.09933 17.052 2.17024 17.1654 2.26119 17.2618C2.35215 17.3581 2.46133 17.4354 2.58241 17.4891C2.70349 17.5429 2.83404 17.5721 2.96649 17.575C3.09893 17.5779 3.23063 17.5544 3.35394 17.5059C3.47724 17.4575 3.58969 17.385 3.68475 17.2928L11.9998 9.44077L20.3128 17.2928Z" fill="white"/>
</svg>
