<svg width="16" height="17" viewBox="0 0 16 17" fill="none" xmlns="http://www.w3.org/2000/svg">
<circle cx="8" cy="8.43848" r="8" fill="#E6001F"/>
<path d="M6.57126 10.0152L11.515 5.07148C11.6317 4.95482 11.7678 4.89648 11.9233 4.89648C12.0789 4.89648 12.215 4.95482 12.3317 5.07148C12.4483 5.18815 12.5067 5.32679 12.5067 5.4874C12.5067 5.64801 12.4483 5.78646 12.3317 5.90273L6.9796 11.2694C6.86293 11.3861 6.72682 11.4444 6.57126 11.4444C6.41571 11.4444 6.2796 11.3861 6.16293 11.2694L3.6546 8.76107C3.53793 8.6444 3.48193 8.50596 3.4866 8.34573C3.49126 8.18551 3.55212 8.04687 3.66918 7.92982C3.78624 7.81276 3.92488 7.75443 4.0851 7.75482C4.24532 7.75521 4.38376 7.81354 4.50043 7.92982L6.57126 10.0152Z" fill="white"/>
</svg>
