<svg width="24" height="25" viewBox="0 0 24 25" fill="none" xmlns="http://www.w3.org/2000/svg">
<circle cx="12" cy="12.6738" r="12" fill="#E6001F"/>
<path d="M10.1211 15.1236L16.7127 8.53192C16.8683 8.37636 17.0498 8.29858 17.2572 8.29858C17.4646 8.29858 17.6461 8.37636 17.8016 8.53192C17.9572 8.68747 18.035 8.87232 18.035 9.08647C18.035 9.30062 17.9572 9.48521 17.8016 9.64025L10.6655 16.7958C10.51 16.9514 10.3285 17.0291 10.1211 17.0291C9.91365 17.0291 9.73217 16.9514 9.57662 16.7958L6.23217 13.4514C6.07662 13.2958 6.00195 13.1112 6.00817 12.8976C6.01439 12.684 6.09554 12.4991 6.25162 12.343C6.40769 12.187 6.59254 12.1092 6.80617 12.1097C7.0198 12.1102 7.20439 12.188 7.35995 12.343L10.1211 15.1236Z" fill="white"/>
</svg>
