<svg width="22" height="18" viewBox="0 0 22 18" fill="none" xmlns="http://www.w3.org/2000/svg">
<path d="M9.47829 14.5051C9.41438 14.5727 9.36443 14.6522 9.33127 14.7392C9.2981 14.8261 9.28239 14.9187 9.28502 15.0117C9.28765 15.1047 9.30858 15.1963 9.3466 15.2812C9.38462 15.3661 9.439 15.4427 9.50662 15.5066C9.57425 15.5705 9.6538 15.6205 9.74073 15.6537C9.82766 15.6868 9.92028 15.7025 10.0133 15.6999C10.1063 15.6973 10.1979 15.6764 10.2828 15.6383C10.3677 15.6003 10.4443 15.5459 10.5082 15.4783L16.529 9.10331C16.6534 8.97179 16.7227 8.79767 16.7227 8.61668C16.7227 8.4357 16.6534 8.26158 16.529 8.13006L10.5082 1.75435C10.4447 1.68525 10.3681 1.62944 10.2829 1.59018C10.1977 1.55092 10.1055 1.52899 10.0117 1.52566C9.91794 1.52233 9.82443 1.53766 9.73663 1.57077C9.64882 1.60389 9.56848 1.65411 9.50025 1.71854C9.43202 1.78296 9.37728 1.86031 9.33919 1.94607C9.30111 2.03183 9.28044 2.12431 9.2784 2.21812C9.27636 2.31194 9.29297 2.40523 9.32729 2.49257C9.3616 2.57991 9.41293 2.65956 9.47829 2.72689L15.0401 8.61668L9.47829 14.5051Z" fill="#9CA3AF"/>
<path d="M5.75661 14.5051C5.69271 14.5727 5.64275 14.6522 5.60959 14.7392C5.57642 14.8261 5.56071 14.9187 5.56334 15.0117C5.56597 15.1047 5.5869 15.1963 5.62492 15.2812C5.66294 15.3661 5.71732 15.4427 5.78494 15.5066C5.85257 15.5705 5.93212 15.6205 6.01905 15.6537C6.10598 15.6868 6.1986 15.7025 6.2916 15.6999C6.38461 15.6973 6.47619 15.6764 6.5611 15.6383C6.64602 15.6003 6.72262 15.5459 6.78653 15.4783L12.8074 9.10331C12.9317 8.97179 13.001 8.79767 13.001 8.61668C13.001 8.4357 12.9317 8.26158 12.8074 8.13006L6.78653 1.75435C6.72304 1.68525 6.64646 1.62944 6.56123 1.59018C6.476 1.55092 6.38382 1.52899 6.29004 1.52566C6.19626 1.52233 6.10275 1.53766 6.01495 1.57077C5.92714 1.60389 5.8468 1.65411 5.77857 1.71854C5.71034 1.78296 5.6556 1.86031 5.61751 1.94607C5.57943 2.03183 5.55876 2.12431 5.55672 2.21812C5.55468 2.31194 5.5713 2.40523 5.60561 2.49257C5.63992 2.57991 5.69125 2.65956 5.75661 2.72689L11.3184 8.61668L5.75661 14.5051Z" fill="#9CA3AF"/>
</svg>
