<svg width="21" height="18" viewBox="0 0 21 18" fill="none" xmlns="http://www.w3.org/2000/svg">
<path d="M12.0881 2.72736C12.152 2.65973 12.202 2.58018 12.2351 2.49325C12.2683 2.40632 12.284 2.31371 12.2814 2.2207C12.2788 2.12769 12.2578 2.03612 12.2198 1.9512C12.1818 1.86628 12.1274 1.78968 12.0598 1.72578C11.9922 1.66187 11.9126 1.61191 11.8257 1.57875C11.7387 1.54559 11.6461 1.52988 11.5531 1.53251C11.4601 1.53514 11.3685 1.55606 11.2836 1.59409C11.1987 1.63211 11.1221 1.68648 11.0582 1.75411L5.03737 8.12911C4.91303 8.26063 4.84375 8.43475 4.84375 8.61574C4.84375 8.79672 4.91303 8.97085 5.03737 9.10236L11.0582 15.4781C11.1217 15.5472 11.1983 15.603 11.2835 15.6422C11.3687 15.6815 11.4609 15.7034 11.5547 15.7068C11.6485 15.7101 11.742 15.6948 11.8298 15.6616C11.9176 15.6285 11.9979 15.5783 12.0662 15.5139C12.1344 15.4495 12.1891 15.3721 12.2272 15.2864C12.2653 15.2006 12.286 15.1081 12.288 15.0143C12.2901 14.9205 12.2734 14.8272 12.2391 14.7399C12.2048 14.6525 12.1535 14.5729 12.0881 14.5055L6.52629 8.61574L12.0881 2.72736Z" fill="#9CA3AF"/>
<path d="M15.8098 2.72736C15.8737 2.65973 15.9237 2.58018 15.9568 2.49325C15.99 2.40632 16.0057 2.31371 16.0031 2.2207C16.0004 2.12769 15.9795 2.03612 15.9415 1.9512C15.9035 1.86628 15.8491 1.78968 15.7815 1.72578C15.7138 1.66187 15.6343 1.61191 15.5474 1.57875C15.4604 1.54559 15.3678 1.52988 15.2748 1.53251C15.1818 1.53514 15.0902 1.55606 15.0053 1.59409C14.9204 1.63211 14.8438 1.68648 14.7799 1.75411L8.75905 8.12911C8.63471 8.26063 8.56543 8.43475 8.56543 8.61574C8.56543 8.79672 8.63471 8.97085 8.75905 9.10236L14.7799 15.4781C14.8434 15.5472 14.9199 15.603 15.0052 15.6422C15.0904 15.6815 15.1826 15.7034 15.2764 15.7068C15.3702 15.7101 15.4637 15.6948 15.5515 15.6616C15.6393 15.6285 15.7196 15.5783 15.7878 15.5139C15.8561 15.4495 15.9108 15.3721 15.9489 15.2864C15.987 15.2006 16.0076 15.1081 16.0097 15.0143C16.0117 14.9205 15.9951 14.8272 15.9608 14.7399C15.9265 14.6525 15.8752 14.5729 15.8098 14.5055L10.248 8.61574L15.8098 2.72736Z" fill="#9CA3AF"/>
</svg>
