<svg width="24" height="25" viewBox="0 0 24 25" fill="none" xmlns="http://www.w3.org/2000/svg">
<path d="M3.68725 7.52754C3.59178 7.43732 3.47947 7.36679 3.35674 7.31998C3.23401 7.27316 3.10327 7.25098 2.97196 7.25469C2.84066 7.25841 2.71138 7.28795 2.59149 7.34163C2.47161 7.3953 2.36347 7.47207 2.27325 7.56754C2.18303 7.66301 2.1125 7.77532 2.06569 7.89805C2.01887 8.02078 1.99669 8.15152 2.0004 8.28283C2.00411 8.41413 2.03365 8.54341 2.08733 8.6633C2.14101 8.78318 2.21778 8.89132 2.31325 8.98154L11.3132 17.4815C11.4989 17.6571 11.7447 17.7549 12.0002 17.7549C12.2558 17.7549 12.5016 17.6571 12.6872 17.4815L21.6882 8.98154C21.7858 8.89192 21.8646 8.7838 21.92 8.66348C21.9754 8.54315 22.0064 8.41301 22.0111 8.28062C22.0158 8.14822 21.9942 8.01621 21.9474 7.89226C21.9007 7.7683 21.8298 7.65487 21.7388 7.55854C21.6479 7.46222 21.5387 7.38494 21.4176 7.33117C21.2965 7.2774 21.166 7.24823 21.0335 7.24535C20.9011 7.24246 20.7694 7.26592 20.6461 7.31437C20.5228 7.36281 20.4103 7.43527 20.3153 7.52754L12.0002 15.3795L3.68725 7.52754Z" fill="#9CA3AF"/>
</svg>
