<svg width="37" height="37" viewBox="0 0 37 37" fill="none" xmlns="http://www.w3.org/2000/svg">
<path d="M9.57617 24.9504C9.15917 24.9504 8.80517 24.8049 8.51417 24.5139C8.22217 24.2229 8.07617 23.8694 8.07617 23.4534C8.07617 23.0374 8.22217 22.6829 8.51417 22.3899C8.80617 22.0969 9.16017 21.9504 9.57617 21.9504H27.5762C27.9932 21.9504 28.3472 22.0959 28.6382 22.3869C28.9302 22.6779 29.0762 23.0314 29.0762 23.4474C29.0762 23.8634 28.9302 24.2179 28.6382 24.5109C28.3462 24.8039 27.9922 24.9504 27.5762 24.9504H9.57617ZM9.57617 15.9504C9.15917 15.9504 8.80517 15.8049 8.51417 15.5139C8.22217 15.2229 8.07617 14.8694 8.07617 14.4534C8.07617 14.0374 8.22217 13.6829 8.51417 13.3899C8.80617 13.0969 9.16017 12.9504 9.57617 12.9504H27.5762C27.9932 12.9504 28.3472 13.0959 28.6382 13.3869C28.9302 13.6779 29.0762 14.0314 29.0762 14.4474C29.0762 14.8634 28.9302 15.2179 28.6382 15.5109C28.3462 15.8039 27.9922 15.9504 27.5762 15.9504H9.57617Z" fill="white"/>
</svg>
