<svg width="16" height="17" viewBox="0 0 16 17" fill="none" xmlns="http://www.w3.org/2000/svg">
<circle cx="8" cy="8.6626" r="8" fill="#FF9900"/>
<path d="M7.99997 9.69969C7.85305 9.69969 7.72999 9.64991 7.63078 9.55036C7.53157 9.4508 7.48179 9.32774 7.48145 9.18117V5.55154C7.48145 5.40463 7.53122 5.28157 7.63078 5.18236C7.73034 5.08315 7.8534 5.03337 7.99997 5.03302C8.14653 5.03268 8.26977 5.08245 8.36967 5.18236C8.46957 5.28226 8.51918 5.40532 8.51848 5.55154V9.18117C8.51848 9.32808 8.46871 9.45132 8.36915 9.55087C8.2696 9.65043 8.14653 9.70003 7.99997 9.69969ZM7.99997 12.2923C7.85305 12.2923 7.72999 12.2425 7.63078 12.1429C7.53157 12.0434 7.48179 11.9203 7.48145 11.7738C7.4811 11.6272 7.53088 11.5041 7.63078 11.4046C7.73068 11.305 7.85374 11.2552 7.99997 11.2552C8.14619 11.2552 8.26942 11.305 8.36967 11.4046C8.46992 11.5041 8.51952 11.6272 8.51848 11.7738C8.51745 11.9203 8.46767 12.0436 8.36915 12.1435C8.27063 12.2434 8.14757 12.293 7.99997 12.2923Z" fill="white"/>
</svg>
