<svg width="80" height="81" viewBox="0 0 80 81" fill="none" xmlns="http://www.w3.org/2000/svg">
<rect y="0.643555" width="80" height="80" rx="40" fill="#9CA3AF"/>
<path d="M39.9994 47.3101C39.0549 47.3101 38.2638 46.9901 37.626 46.3501C36.9882 45.7101 36.6682 44.919 36.666 43.9767V20.6434C36.666 19.699 36.986 18.9078 37.626 18.2701C38.266 17.6323 39.0571 17.3123 39.9994 17.3101C40.9416 17.3078 41.7338 17.6278 42.376 18.2701C43.0183 18.9123 43.3371 19.7034 43.3327 20.6434V43.9767C43.3327 44.9212 43.0127 45.7134 42.3727 46.3534C41.7327 46.9934 40.9416 47.3123 39.9994 47.3101ZM39.9994 63.9767C39.0549 63.9767 38.2638 63.6567 37.626 63.0167C36.9882 62.3767 36.6682 61.5856 36.666 60.6434C36.6638 59.7012 36.9838 58.9101 37.626 58.2701C38.2683 57.6301 39.0594 57.3101 39.9994 57.3101C40.9394 57.3101 41.7316 57.6301 42.376 58.2701C43.0205 58.9101 43.3394 59.7012 43.3327 60.6434C43.326 61.5856 43.006 62.3778 42.3727 63.0201C41.7394 63.6623 40.9483 63.9812 39.9994 63.9767Z" fill="white"/>
</svg>
