<svg width="25" height="25" viewBox="0 0 25 25" fill="none" xmlns="http://www.w3.org/2000/svg">
<path d="M21.1594 17.6798C21.2589 17.7738 21.3759 17.8473 21.5037 17.8961C21.6316 17.9448 21.7678 17.9679 21.9045 17.9641C22.0413 17.9602 22.176 17.9294 22.3009 17.8735C22.4257 17.8176 22.5384 17.7376 22.6324 17.6382C22.7263 17.5387 22.7998 17.4217 22.8486 17.2939C22.8973 17.1661 22.9204 17.0299 22.9166 16.8931C22.9127 16.7563 22.8819 16.6216 22.826 16.4968C22.7701 16.3719 22.6901 16.2592 22.5907 16.1653L13.2157 7.3111C13.0223 7.12825 12.7662 7.02637 12.5001 7.02637C12.2339 7.02637 11.9778 7.12825 11.7844 7.3111L2.4084 16.1653C2.30677 16.2586 2.22471 16.3712 2.16697 16.4966C2.10924 16.6219 2.07699 16.7575 2.07209 16.8954C2.06719 17.0333 2.08974 17.1708 2.13843 17.2999C2.18713 17.4291 2.26099 17.5472 2.35573 17.6476C2.45048 17.7479 2.56422 17.8284 2.69034 17.8844C2.81646 17.9404 2.95245 17.9708 3.09042 17.9738C3.22838 17.9768 3.36557 17.9524 3.49401 17.9019C3.62245 17.8514 3.73958 17.776 3.83861 17.6798L12.5001 9.50068L21.1594 17.6798Z" fill="#E6001F"/>
</svg>
