<svg width="24" height="24" viewBox="0 0 24 24" fill="none" xmlns="http://www.w3.org/2000/svg">
<path d="M21.635 15.8876C21.4847 14.8969 20.9524 11.395 20.665 9.49975C20.0454 4.95985 16.5824 4.93196 16.5824 4.93196C16.5824 4.93196 13.6759 4.91135 11.9954 4.91377C10.3148 4.91135 7.40833 4.93196 7.40833 4.93196C7.40833 4.93196 3.94533 4.95864 3.32572 9.49975C3.04563 11.3453 2.53394 14.7126 2.36903 15.804C2.30598 16.2199 2.30719 16.6431 2.38479 17.0566C2.50726 17.7138 2.83465 18.5468 3.6907 18.89C5.19909 19.4963 6.43952 18.5941 7.0858 17.6095C7.55748 16.9498 8.97251 14.5514 8.97251 14.5514H15.0219C15.0219 14.5514 16.4369 16.9498 16.9086 17.6095C17.5548 18.5929 18.7953 19.4963 20.3037 18.89C21.3464 18.4704 21.6047 17.3245 21.6641 16.6564C21.6872 16.3993 21.6763 16.1423 21.6375 15.8864L21.635 15.8876ZM10.8738 10.3983C10.8738 10.6978 10.6313 10.9403 10.3318 10.9403H9.02465V12.2475C9.02465 12.547 8.78214 12.7895 8.48265 12.7895H7.93701C7.63751 12.7895 7.395 12.547 7.395 12.2475V10.9403H6.08789C5.78839 10.9403 5.54588 10.6978 5.54588 10.3983V9.85261C5.54588 9.5531 5.78839 9.31059 6.08789 9.31059H7.395V8.00343C7.395 7.70392 7.63751 7.4614 7.93701 7.4614H8.48265C8.78214 7.4614 9.02465 7.70392 9.02465 8.00343V9.31059H10.3318C10.6313 9.31059 10.8738 9.5531 10.8738 9.85261V10.3983ZM14.0106 10.8372C13.5729 10.8372 13.2176 10.4819 13.2176 10.0442C13.2176 9.60646 13.5729 9.25117 14.0106 9.25117C14.4483 9.25117 14.8036 9.60646 14.8036 10.0442C14.8036 10.4819 14.4483 10.8372 14.0106 10.8372ZM15.9058 12.707C15.4681 12.707 15.1128 12.3517 15.1128 11.914C15.1128 11.4763 15.4681 11.121 15.9058 11.121C16.3435 11.121 16.6988 11.4763 16.6988 11.914C16.6988 12.3517 16.3435 12.707 15.9058 12.707ZM15.9058 9.01351C15.4681 9.01351 15.1128 8.65822 15.1128 8.22048C15.1128 7.78274 15.4681 7.42745 15.9058 7.42745C16.3435 7.42745 16.6988 7.78274 16.6988 8.22048C16.6988 8.65822 16.3435 9.01351 15.9058 9.01351ZM17.8956 10.8372C17.4578 10.8372 17.1026 10.4819 17.1026 10.0442C17.1026 9.60646 17.4578 9.25117 17.8956 9.25117C18.3333 9.25117 18.6886 9.60646 18.6886 10.0442C18.6886 10.4819 18.3333 10.8372 17.8956 10.8372Z" fill="#9CA3AF"/>
</svg>
