<svg width="25" height="25" viewBox="0 0 25 25" fill="none" xmlns="http://www.w3.org/2000/svg">
<path d="M12.3672 2.23535C11.054 2.23535 9.75361 2.49401 8.54035 2.99656C7.3271 3.4991 6.22471 4.2357 5.29612 5.16428C3.42076 7.03965 2.36719 9.58319 2.36719 12.2354C2.36719 16.6554 5.23719 20.4054 9.20719 21.7354C9.70719 21.8154 9.86719 21.5054 9.86719 21.2354V19.5454C7.09719 20.1454 6.50719 18.2054 6.50719 18.2054C6.04719 17.0454 5.39719 16.7354 5.39719 16.7354C4.48719 16.1154 5.46719 16.1354 5.46719 16.1354C6.46719 16.2054 6.99719 17.1654 6.99719 17.1654C7.86719 18.6854 9.33719 18.2354 9.90719 17.9954C9.99719 17.3454 10.2572 16.9054 10.5372 16.6554C8.31719 16.4054 5.98719 15.5454 5.98719 11.7354C5.98719 10.6254 6.36719 9.73535 7.01719 9.02535C6.91719 8.77535 6.56719 7.73535 7.11719 6.38535C7.11719 6.38535 7.95719 6.11535 9.86719 7.40535C10.6572 7.18535 11.5172 7.07535 12.3672 7.07535C13.2172 7.07535 14.0772 7.18535 14.8672 7.40535C16.7772 6.11535 17.6172 6.38535 17.6172 6.38535C18.1672 7.73535 17.8172 8.77535 17.7172 9.02535C18.3672 9.73535 18.7472 10.6254 18.7472 11.7354C18.7472 15.5554 16.4072 16.3954 14.1772 16.6454C14.5372 16.9554 14.8672 17.5654 14.8672 18.4954V21.2354C14.8672 21.5054 15.0272 21.8254 15.5372 21.7354C19.5072 20.3954 22.3672 16.6554 22.3672 12.2354C22.3672 10.9221 22.1085 9.62177 21.606 8.40852C21.1034 7.19526 20.3668 6.09287 19.4383 5.16428C18.5097 4.2357 17.4073 3.4991 16.194 2.99656C14.9808 2.49401 13.6804 2.23535 12.3672 2.23535Z" fill="white"/>
</svg>
