<svg width="30" height="31" viewBox="0 0 30 31" fill="none" xmlns="http://www.w3.org/2000/svg">
<path d="M20.4232 12.5832C20.5433 12.4712 20.6402 12.3367 20.7083 12.1873C20.7764 12.0379 20.8144 11.8766 20.8201 11.7125C20.8259 11.5485 20.7992 11.3849 20.7418 11.2311C20.6843 11.0773 20.5971 10.9364 20.4851 10.8163C20.3732 10.6962 20.2387 10.5994 20.0893 10.5313C19.9399 10.4632 19.7786 10.4252 19.6145 10.4194C19.4504 10.4137 19.2868 10.4403 19.1331 10.4978C18.9793 10.5553 18.8383 10.6425 18.7182 10.7544L15.0607 14.1644L11.6507 10.5057C11.4226 10.272 11.112 10.1369 10.7855 10.1292C10.459 10.1216 10.1424 10.2421 9.90362 10.4649C9.66481 10.6877 9.52269 10.9951 9.50767 11.3214C9.49264 11.6477 9.60591 11.9669 9.82324 12.2107L13.2332 15.8682L9.57449 19.2782C9.45017 19.389 9.34925 19.5235 9.27766 19.6739C9.20606 19.8243 9.16523 19.9874 9.15757 20.1538C9.14991 20.3201 9.17557 20.4864 9.23305 20.6427C9.29052 20.799 9.37866 20.9422 9.49226 21.064C9.60587 21.1858 9.74267 21.2836 9.89462 21.3518C10.0466 21.4199 10.2106 21.457 10.3771 21.4609C10.5436 21.4648 10.7092 21.4354 10.8642 21.3744C11.0191 21.3134 11.1603 21.222 11.2795 21.1057L14.937 17.6969L18.347 21.3544C18.4571 21.481 18.5916 21.5842 18.7424 21.6577C18.8932 21.7313 19.0573 21.7737 19.2248 21.7825C19.3924 21.7912 19.56 21.7662 19.7177 21.7088C19.8754 21.6514 20.0199 21.5629 20.1426 21.4485C20.2653 21.334 20.3638 21.1961 20.4321 21.0428C20.5003 20.8895 20.5371 20.7241 20.54 20.5563C20.543 20.3886 20.5122 20.2219 20.4494 20.0663C20.3866 19.9107 20.2931 19.7694 20.1745 19.6507L16.7657 15.9932L20.4232 12.5832Z" fill="#9CA3AF"/>
<path fill-rule="evenodd" clip-rule="evenodd" d="M1.25 15.9307C1.25 8.33691 7.40625 2.18066 15 2.18066C22.5937 2.18066 28.75 8.33691 28.75 15.9307C28.75 23.5244 22.5937 29.6807 15 29.6807C7.40625 29.6807 1.25 23.5244 1.25 15.9307ZM15 27.1807C13.5226 27.1807 12.0597 26.8897 10.6948 26.3243C9.3299 25.7589 8.08971 24.9303 7.04505 23.8856C6.00039 22.841 5.17172 21.6008 4.60636 20.2359C4.04099 18.8709 3.75 17.408 3.75 15.9307C3.75 14.4533 4.04099 12.9904 4.60636 11.6255C5.17172 10.2606 6.00039 9.02037 7.04505 7.97571C8.08971 6.93105 9.3299 6.10238 10.6948 5.53702C12.0597 4.97165 13.5226 4.68066 15 4.68066C17.9837 4.68066 20.8452 5.86593 22.955 7.97571C25.0647 10.0855 26.25 12.947 26.25 15.9307C26.25 18.9143 25.0647 21.7758 22.955 23.8856C20.8452 25.9954 17.9837 27.1807 15 27.1807Z" fill="#9CA3AF"/>
</svg>
