<svg width="19" height="19" viewBox="0 0 19 19" fill="none" xmlns="http://www.w3.org/2000/svg">
<path d="M9.27832 16.7L8.19082 15.71C4.32832 12.2075 1.77832 9.89 1.77832 7.0625C1.77832 4.745 3.59332 2.9375 5.90332 2.9375C7.20832 2.9375 8.46082 3.545 9.27832 4.4975C10.0958 3.545 11.3483 2.9375 12.6533 2.9375C14.9633 2.9375 16.7783 4.745 16.7783 7.0625C16.7783 9.89 14.2283 12.2075 10.3658 15.71L9.27832 16.7Z" fill="#191C21"/>
<path d="M9.27832 16.7L8.19082 15.71C4.32832 12.2075 1.77832 9.89 1.77832 7.0625C1.77832 4.745 3.59332 2.9375 5.90332 2.9375C7.20832 2.9375 8.46082 3.545 9.27832 4.4975C10.0958 3.545 11.3483 2.9375 12.6533 2.9375C14.9633 2.9375 16.7783 4.745 16.7783 7.0625C16.7783 9.89 14.2283 12.2075 10.3658 15.71L9.27832 16.7Z" fill="black" fill-opacity="0.2"/>
</svg>
