<svg width="31" height="30" viewBox="0 0 31 30" fill="none" xmlns="http://www.w3.org/2000/svg">
<path d="M15.855 -0.00683594C24.1393 -0.00683594 30.855 6.70987 30.855 14.9941C30.8547 23.2782 24.1391 29.9941 15.855 29.9941C7.57087 29.9941 0.855244 23.2782 0.85498 14.9941C0.85498 6.70987 7.57071 -0.00683594 15.855 -0.00683594ZM19.23 8.24414C17.925 8.24414 16.6725 8.85121 15.855 9.80371C15.0375 8.85121 13.785 8.24414 12.48 8.24414C10.17 8.24414 8.35498 10.0516 8.35498 12.3691C8.35527 15.1964 10.9048 17.5143 14.7671 21.0166L15.855 22.0059L16.9429 21.0166C20.8051 17.5143 23.3547 15.1964 23.355 12.3691C23.355 10.0516 21.54 8.24414 19.23 8.24414Z" fill="#E6001F"/>
</svg>
