<svg width="31" height="31" viewBox="0 0 31 31" fill="none" xmlns="http://www.w3.org/2000/svg">
<path d="M15.9414 0.481445C24.2257 0.481445 30.9414 7.19815 30.9414 15.4824C30.9411 23.7665 24.2255 30.4824 15.9414 30.4824C7.6573 30.4824 0.94167 23.7665 0.941406 15.4824C0.941406 7.19815 7.65714 0.481445 15.9414 0.481445ZM19.3164 8.73242C18.0114 8.73242 16.7589 9.33949 15.9414 10.292C15.1239 9.33949 13.8714 8.73242 12.5664 8.73242C10.2564 8.73242 8.44141 10.5399 8.44141 12.8574C8.4417 15.6847 10.9912 18.0026 14.8535 21.5049L15.9414 22.4941L17.0293 21.5049C20.8916 18.0026 23.4411 15.6847 23.4414 12.8574C23.4414 10.5399 21.6264 8.73242 19.3164 8.73242Z" fill="#D9D9D9"/>
</svg>
