<svg width="25" height="24" viewBox="0 0 25 24" fill="none" xmlns="http://www.w3.org/2000/svg">
<path d="M4.27539 19V10C4.27539 9.68333 4.34639 9.38333 4.48839 9.1C4.63039 8.81667 4.82606 8.58333 5.07539 8.4L11.0754 3.9C11.4254 3.63333 11.8254 3.5 12.2754 3.5C12.7254 3.5 13.1254 3.63333 13.4754 3.9L19.4754 8.4C19.7254 8.58333 19.9214 8.81667 20.0634 9.1C20.2054 9.38333 20.2761 9.68333 20.2754 10V19C20.2754 19.55 20.0794 20.021 19.6874 20.413C19.2954 20.805 18.8247 21.0007 18.2754 21H15.2754C14.9921 21 14.7547 20.904 14.5634 20.712C14.3721 20.52 14.2761 20.2827 14.2754 20V15C14.2754 14.7167 14.1794 14.4793 13.9874 14.288C13.7954 14.0967 13.5581 14.0007 13.2754 14H11.2754C10.9921 14 10.7547 14.096 10.5634 14.288C10.3721 14.48 10.2761 14.7173 10.2754 15V20C10.2754 20.2833 10.1794 20.521 9.98739 20.713C9.79539 20.905 9.55806 21.0007 9.27539 21H6.27539C5.72539 21 5.25472 20.8043 4.86339 20.413C4.47206 20.0217 4.27606 19.5507 4.27539 19Z" fill="black"/>
</svg>
