<svg width="25" height="25" viewBox="0 0 25 25" fill="none" xmlns="http://www.w3.org/2000/svg">
<path d="M4.36719 19.2354V10.2354C4.36719 9.91868 4.43819 9.61869 4.58019 9.33535C4.72219 9.05202 4.91785 8.81868 5.16719 8.63535L11.1672 4.13535C11.5172 3.86868 11.9172 3.73535 12.3672 3.73535C12.8172 3.73535 13.2172 3.86868 13.5672 4.13535L19.5672 8.63535C19.8172 8.81868 20.0132 9.05202 20.1552 9.33535C20.2972 9.61869 20.3679 9.91868 20.3672 10.2354V19.2354C20.3672 19.7854 20.1712 20.2564 19.7792 20.6484C19.3872 21.0404 18.9165 21.236 18.3672 21.2354H15.3672C15.0839 21.2354 14.8465 21.1394 14.6552 20.9474C14.4639 20.7554 14.3679 20.518 14.3672 20.2354V15.2354C14.3672 14.952 14.2712 14.7147 14.0792 14.5234C13.8872 14.332 13.6499 14.236 13.3672 14.2354H11.3672C11.0839 14.2354 10.8465 14.3314 10.6552 14.5234C10.4639 14.7154 10.3679 14.9527 10.3672 15.2354V20.2354C10.3672 20.5187 10.2712 20.7564 10.0792 20.9484C9.88719 21.1404 9.64985 21.236 9.36719 21.2354H6.36719C5.81719 21.2354 5.34652 21.0397 4.95519 20.6484C4.56385 20.257 4.36785 19.786 4.36719 19.2354Z" fill="white"/>
</svg>
