<svg width="24" height="24" viewBox="0 0 24 24" fill="none" xmlns="http://www.w3.org/2000/svg">
<path d="M11.9998 1.75006C12.3084 1.75006 12.6113 1.83581 12.8738 1.9981C13.1033 2.14007 13.2939 2.33594 13.4304 2.56744L13.4861 2.669L13.4871 2.66998L15.9099 7.54986L21.323 8.33697H21.324C21.6307 8.37951 21.9194 8.50745 22.157 8.70611C22.3945 8.90484 22.5717 9.16655 22.6677 9.46099C22.7638 9.75548 22.7746 10.0715 22.7 10.3721C22.6253 10.6724 22.4673 10.9451 22.2449 11.1602L18.3279 14.9542L19.2527 20.3145L19.2703 20.4415C19.3981 21.7384 18.016 22.6682 16.8474 22.0587H16.8464L11.9988 19.5245L7.1521 22.0577L7.15308 22.0587C5.94412 22.692 4.51322 21.6729 4.74683 20.3135L5.67066 14.9542L1.75464 11.1592H1.75367C1.53205 10.9438 1.37461 10.6702 1.30054 10.3702C1.22649 10.0701 1.23876 9.7548 1.33472 9.46099C1.43069 9.1674 1.60678 8.90648 1.84351 8.70807C2.05072 8.53443 2.29705 8.41456 2.56031 8.35846L2.67456 8.33795L8.08863 7.55084L10.5134 2.66998L10.5144 2.669C10.6523 2.39295 10.8643 2.16039 11.1267 1.9981C11.389 1.83597 11.6914 1.7501 11.9998 1.75006ZM11.9998 3.25006C11.97 3.2501 11.9411 3.25885 11.9158 3.27447C11.8909 3.28985 11.8696 3.311 11.8562 3.33697L9.25855 8.56939C9.14908 8.78985 8.93865 8.94312 8.69507 8.97857L2.88746 9.8233H2.88355C2.85551 9.82724 2.82912 9.83935 2.80738 9.85748C2.78565 9.87569 2.76935 9.89989 2.7605 9.92682C2.75167 9.95385 2.75076 9.98319 2.75757 10.0108C2.76429 10.0378 2.77788 10.0625 2.79761 10.0821L6.99976 14.1524C7.17779 14.3249 7.25962 14.5741 7.21753 14.8184L6.22535 20.5684C6.20528 20.6869 6.33391 20.7939 6.45679 20.7295H6.45777L11.6521 18.0137L11.7361 17.9756C11.9345 17.9011 12.157 17.9142 12.3474 18.0137L17.5398 20.7286H17.5408C17.5774 20.7477 17.6069 20.7513 17.6306 20.7491C17.6572 20.7466 17.6861 20.7359 17.7127 20.7169C17.7394 20.6976 17.7577 20.6735 17.7673 20.6514C17.7715 20.6418 17.7755 20.6308 17.7771 20.6172L17.7752 20.5694L16.783 14.8194C16.7409 14.5752 16.8219 14.3259 16.9998 14.1534L21.2019 10.0831H21.2029C21.2234 10.0633 21.238 10.0375 21.2449 10.0098C21.2517 9.98226 21.2508 9.95283 21.2419 9.92584C21.2331 9.89891 21.2168 9.87471 21.1951 9.8565C21.1732 9.83821 21.1462 9.82721 21.1179 9.8233L21.113 9.82232L15.3054 8.97857C15.0618 8.94317 14.8505 8.7899 14.741 8.56939L12.1433 3.33795V3.33697C12.13 3.31115 12.1094 3.2898 12.0847 3.27447C12.0593 3.25874 12.0297 3.25006 11.9998 3.25006Z" fill="#FDC700"/>
</svg>
