<svg width="24" height="24" viewBox="0 0 24 24" fill="none" xmlns="http://www.w3.org/2000/svg">
<path d="M12 1.75C12.3085 1.75004 12.6116 1.8358 12.874 1.99805C13.1035 2.14 13.2942 2.33593 13.4307 2.56738L13.4863 2.66895L13.4873 2.66992L15.9101 7.5498L21.3232 8.33691H21.3242C21.6309 8.37948 21.9197 8.50744 22.1572 8.70605C22.3947 8.90477 22.5719 9.16654 22.668 9.46094C22.764 9.75538 22.7748 10.0715 22.7002 10.3721C22.6255 10.6723 22.4675 10.945 22.2451 11.1602L18.3281 14.9541L19.2529 20.3145L19.2705 20.4414C19.3983 21.7382 18.0162 22.668 16.8476 22.0586H16.8467L11.999 19.5244L7.15234 22.0576L7.15331 22.0586C5.94436 22.692 4.51345 21.6728 4.74706 20.3135L5.67089 14.9541L1.75488 11.1592H1.7539C1.53229 10.9438 1.37484 10.6702 1.30077 10.3701C1.22672 10.07 1.23899 9.75474 1.33495 9.46094C1.43094 9.16739 1.60704 8.90639 1.84374 8.70801C2.05092 8.53445 2.29735 8.41449 2.56054 8.3584L2.6748 8.33789L8.08886 7.55078L10.5137 2.66992L10.5146 2.66895C10.6525 2.39296 10.8645 2.1603 11.1269 1.99805C11.3892 1.83599 11.6917 1.75004 12 1.75Z" fill="#FDC700"/>
</svg>
