<svg width="18" height="18" viewBox="0 0 18 18" fill="none" xmlns="http://www.w3.org/2000/svg">
<path d="M12.2492 2.72736C12.3132 2.65974 12.3631 2.58019 12.3963 2.49325C12.4294 2.40632 12.4451 2.31371 12.4425 2.2207C12.4399 2.1277 12.419 2.03612 12.3809 1.9512C12.3429 1.86628 12.2885 1.78968 12.2209 1.72578C12.1533 1.66187 12.0737 1.61191 11.9868 1.57875C11.8999 1.54559 11.8073 1.52988 11.7143 1.53251C11.6213 1.53514 11.5297 1.55606 11.4448 1.59409C11.3598 1.63211 11.2832 1.68649 11.2193 1.75411L5.1985 8.12911C5.07416 8.26063 5.00488 8.43475 5.00488 8.61574C5.00488 8.79672 5.07416 8.97085 5.1985 9.10236L11.2193 15.4781C11.2828 15.5472 11.3594 15.603 11.4446 15.6422C11.5299 15.6815 11.622 15.7034 11.7158 15.7068C11.8096 15.7101 11.9031 15.6948 11.9909 15.6616C12.0787 15.6285 12.1591 15.5783 12.2273 15.5139C12.2955 15.4495 12.3503 15.3721 12.3883 15.2864C12.4264 15.2006 12.4471 15.1081 12.4491 15.0143C12.4512 14.9205 12.4346 14.8272 12.4002 14.7399C12.3659 14.6525 12.3146 14.5729 12.2492 14.5055L6.68742 8.61574L12.2492 2.72736Z" fill="#9CA3AF"/>
</svg>
