<svg width="129" height="34" viewBox="0 0 129 34" fill="none" xmlns="http://www.w3.org/2000/svg">
<path d="M104.887 18.665C105.198 18.2089 105.82 18.0913 106.276 18.4023L128.235 33.3711H1.24219C0.689903 33.3711 0.242188 32.9234 0.242188 32.3711C0.242189 31.8188 0.689903 31.3711 1.24219 31.3711H121.751L105.149 20.0547C104.693 19.7436 104.576 19.1213 104.887 18.665Z" fill="white"/>
<path d="M90.9286 21.9158L88.2406 22.8518C87.5686 23.0918 87.2806 22.9238 87.2806 22.2998V0.675781H90.9286V21.9158ZM80.2726 5.40378H72.8086V2.28378H83.9206V17.3558L81.2326 18.2918C80.5606 18.5318 80.2726 18.3638 80.2726 17.7398V5.40378Z" fill="white"/>
<path d="M68.9916 21.9158L66.3036 22.8518C65.6316 23.0918 65.3436 22.9238 65.3436 22.2998V0.675781H68.9916V8.23578H72.4236V11.4518H68.9916V21.9158ZM58.7196 5.40378H51.3516V2.28378H62.3676V17.3558L59.6796 18.2918C59.0076 18.5318 58.7196 18.3638 58.7196 17.7398V5.40378Z" fill="white"/>
<path d="M50.509 20.6678H29.293V17.4998H38.173V14.9798H32.053V7.0118H44.029V5.1878H32.053V2.0918H47.749V9.9158H35.773V11.8838H48.109V14.9798H41.869V17.4998H50.509V20.6678Z" fill="white"/>
<path d="M20.5323 17.7398H9.15625V2.23578H12.8043V6.93978H16.8843V2.23578H20.5323V17.7398ZM26.5562 21.9158L23.8682 22.8518C23.1962 23.0918 22.9083 22.9238 22.9083 22.2998V0.675781H26.5562V8.23578H29.9883V11.4518H26.5562V21.9158ZM16.8843 14.6678V9.96378H12.8043V14.6678H16.8843Z" fill="white"/>
</svg>
