<svg width="20" height="21" viewBox="0 0 20 21" fill="none" xmlns="http://www.w3.org/2000/svg">
<path d="M4.16699 3.76965H9.16699C9.27673 3.76972 9.3455 3.80168 9.40723 3.8634C9.46888 3.92508 9.50023 3.99317 9.5 4.10168C9.49974 4.21164 9.46783 4.28185 9.40527 4.34485C9.34476 4.40578 9.27754 4.43716 9.16895 4.43665H3.66699V17.1027H9.16699C9.27668 17.1027 9.34553 17.1347 9.40723 17.1964C9.46886 17.258 9.50017 17.3263 9.5 17.4347C9.49974 17.5446 9.46772 17.6149 9.40527 17.6779C9.34476 17.7388 9.27754 17.7702 9.16895 17.7697H4.16699C3.84223 17.7697 3.57673 17.6598 3.34375 17.4269C3.1108 17.1939 3.00046 16.9283 3 16.6027V4.93665C3 4.61221 3.10944 4.34643 3.34277 4.1134C3.5476 3.90892 3.77728 3.79894 4.04883 3.77454L4.16699 3.76965ZM13.3486 7.46692C13.4465 7.46393 13.5141 7.49071 13.583 7.55969L16.5635 10.5402C16.6424 10.6192 16.667 10.6888 16.667 10.7697C16.667 10.8505 16.6424 10.9201 16.5635 10.9991L13.584 13.9786C13.5114 14.0512 13.4452 14.0749 13.3584 14.0724C13.2644 14.0696 13.1883 14.0394 13.1104 13.964C13.053 13.8979 13.0282 13.8293 13.0312 13.7335C13.0348 13.6229 13.0677 13.554 13.125 13.4962L14.666 11.9562L15.5195 11.1027H8.33301C8.22329 11.1026 8.15468 11.071 8.09375 11.0099C8.03198 10.9478 8.0003 10.8783 8 10.7687C7.99975 10.6606 8.03074 10.5922 8.09277 10.5304C8.15577 10.4676 8.22507 10.4367 8.33301 10.4366H15.5195L13.1035 8.02063C13.0475 7.96464 13.0206 7.9053 13.0205 7.81165C13.0205 7.71693 13.0483 7.64177 13.1182 7.56555C13.1754 7.50316 13.2405 7.47023 13.3486 7.46692Z" fill="black"/>
<path d="M4.16699 3.76965H9.16699C9.27673 3.76972 9.3455 3.80168 9.40723 3.8634C9.46888 3.92508 9.50023 3.99317 9.5 4.10168C9.49974 4.21164 9.46783 4.28185 9.40527 4.34485C9.34476 4.40578 9.27754 4.43716 9.16895 4.43665H3.66699V17.1027H9.16699C9.27668 17.1027 9.34553 17.1347 9.40723 17.1964C9.46886 17.258 9.50017 17.3263 9.5 17.4347C9.49974 17.5446 9.46772 17.6149 9.40527 17.6779C9.34476 17.7388 9.27754 17.7702 9.16895 17.7697H4.16699C3.84223 17.7697 3.57673 17.6598 3.34375 17.4269C3.1108 17.1939 3.00046 16.9283 3 16.6027V4.93665C3 4.61221 3.10944 4.34643 3.34277 4.1134C3.5476 3.90892 3.77728 3.79894 4.04883 3.77454L4.16699 3.76965ZM13.3486 7.46692C13.4465 7.46393 13.5141 7.49071 13.583 7.55969L16.5635 10.5402C16.6424 10.6192 16.667 10.6888 16.667 10.7697C16.667 10.8505 16.6424 10.9201 16.5635 10.9991L13.584 13.9786C13.5114 14.0512 13.4452 14.0749 13.3584 14.0724C13.2644 14.0696 13.1883 14.0394 13.1104 13.964C13.053 13.8979 13.0282 13.8293 13.0312 13.7335C13.0348 13.6229 13.0677 13.554 13.125 13.4962L14.666 11.9562L15.5195 11.1027H8.33301C8.22329 11.1026 8.15468 11.071 8.09375 11.0099C8.03198 10.9478 8.0003 10.8783 8 10.7687C7.99975 10.6606 8.03074 10.5922 8.09277 10.5304C8.15577 10.4676 8.22507 10.4367 8.33301 10.4366H15.5195L13.1035 8.02063C13.0475 7.96464 13.0206 7.9053 13.0205 7.81165C13.0205 7.71693 13.0483 7.64177 13.1182 7.56555C13.1754 7.50316 13.2405 7.47023 13.3486 7.46692Z" stroke="#191C21"/>
<path d="M4.16699 3.76965H9.16699C9.27673 3.76972 9.3455 3.80168 9.40723 3.8634C9.46888 3.92508 9.50023 3.99317 9.5 4.10168C9.49974 4.21164 9.46783 4.28185 9.40527 4.34485C9.34476 4.40578 9.27754 4.43716 9.16895 4.43665H3.66699V17.1027H9.16699C9.27668 17.1027 9.34553 17.1347 9.40723 17.1964C9.46886 17.258 9.50017 17.3263 9.5 17.4347C9.49974 17.5446 9.46772 17.6149 9.40527 17.6779C9.34476 17.7388 9.27754 17.7702 9.16895 17.7697H4.16699C3.84223 17.7697 3.57673 17.6598 3.34375 17.4269C3.1108 17.1939 3.00046 16.9283 3 16.6027V4.93665C3 4.61221 3.10944 4.34643 3.34277 4.1134C3.5476 3.90892 3.77728 3.79894 4.04883 3.77454L4.16699 3.76965ZM13.3486 7.46692C13.4465 7.46393 13.5141 7.49071 13.583 7.55969L16.5635 10.5402C16.6424 10.6192 16.667 10.6888 16.667 10.7697C16.667 10.8505 16.6424 10.9201 16.5635 10.9991L13.584 13.9786C13.5114 14.0512 13.4452 14.0749 13.3584 14.0724C13.2644 14.0696 13.1883 14.0394 13.1104 13.964C13.053 13.8979 13.0282 13.8293 13.0312 13.7335C13.0348 13.6229 13.0677 13.554 13.125 13.4962L14.666 11.9562L15.5195 11.1027H8.33301C8.22329 11.1026 8.15468 11.071 8.09375 11.0099C8.03198 10.9478 8.0003 10.8783 8 10.7687C7.99975 10.6606 8.03074 10.5922 8.09277 10.5304C8.15577 10.4676 8.22507 10.4367 8.33301 10.4366H15.5195L13.1035 8.02063C13.0475 7.96464 13.0206 7.9053 13.0205 7.81165C13.0205 7.71693 13.0483 7.64177 13.1182 7.56555C13.1754 7.50316 13.2405 7.47023 13.3486 7.46692Z" stroke="black" stroke-opacity="0.2"/>
</svg>
