<svg width="24" height="24" viewBox="0 0 24 24" fill="none" xmlns="http://www.w3.org/2000/svg">
<g clip-path="url(#clip0_599_8743)">
<path d="M16.71 15.8575C16.71 16.1856 16.9775 16.4531 17.3025 16.4531C17.4605 16.4531 17.612 16.3904 17.7237 16.2787C17.8354 16.167 17.8981 16.0155 17.8981 15.8575C17.898 15.7795 17.8824 15.7022 17.8524 15.6302C17.8224 15.5582 17.7784 15.4928 17.7231 15.4378C17.6678 15.3828 17.6022 15.3392 17.53 15.3095C17.4578 15.2799 17.3805 15.2648 17.3025 15.265C17.1454 15.2653 16.9949 15.3279 16.8839 15.4389C16.7728 15.5499 16.7103 15.7005 16.71 15.8575ZM8.83561 19.3894H15.1475C15.3981 19.3894 15.5844 19.2044 15.6 18.9537V14.6406C15.5844 14.4063 15.3825 14.205 15.1475 14.2175H8.83561C8.71783 14.2178 8.60477 14.2638 8.52033 14.3459C8.43589 14.428 8.38668 14.5398 8.38311 14.6575V18.9544C8.38311 19.205 8.58499 19.3894 8.83561 19.3894ZM19.7119 16.4531C19.8733 16.4528 20.0279 16.3884 20.1419 16.2742C20.256 16.16 20.32 16.0051 20.32 15.8437C20.32 15.3037 19.6656 15.0306 19.2819 15.4144C18.8975 15.795 19.1687 16.4531 19.7119 16.4531ZM18.51 16.4369C18.4304 16.4343 18.351 16.4477 18.2767 16.4764C18.2024 16.5051 18.1345 16.5485 18.0773 16.6039C18.0201 16.6593 17.9745 16.7257 17.9434 16.799C17.9124 16.8724 17.8963 16.9513 17.8963 17.0309C17.8963 17.1106 17.9124 17.1895 17.9434 17.2628C17.9745 17.3362 18.0201 17.4026 18.0773 17.458C18.1345 17.5134 18.2024 17.5567 18.2767 17.5854C18.351 17.6141 18.4304 17.6276 18.51 17.625C19.2725 17.5956 19.2725 16.4656 18.51 16.4369ZM17.915 14.6569C17.915 14.985 18.1819 15.2487 18.5075 15.2487C18.5869 15.2513 18.666 15.2379 18.7401 15.2093C18.8142 15.1807 18.8818 15.1375 18.9388 15.0823C18.9959 15.027 19.0413 14.9609 19.0723 14.8877C19.1033 14.8146 19.1192 14.736 19.1192 14.6566C19.1192 14.5771 19.1033 14.4985 19.0723 14.4254C19.0413 14.3523 18.9959 14.2861 18.9388 14.2309C18.8818 14.1756 18.8142 14.1324 18.7401 14.1038C18.666 14.0752 18.5869 14.0618 18.5075 14.0644C18.4297 14.0643 18.3526 14.0796 18.2807 14.1093C18.2087 14.1391 18.1434 14.1827 18.0883 14.2377C18.0333 14.2928 17.9897 14.3581 17.9599 14.43C17.9302 14.502 17.9149 14.579 17.915 14.6569ZM4.11562 15.8444C4.11562 16.2092 4.26055 16.5591 4.51853 16.8171C4.77651 17.0751 5.1264 17.22 5.49124 17.22C5.85608 17.22 6.20597 17.0751 6.46395 16.8171C6.72193 16.5591 6.86686 16.2092 6.86686 15.8444C6.86686 14.0087 4.11562 14.0087 4.11562 15.8444ZM19.7275 2H4.27249C3.66995 1.99966 3.09174 2.23771 2.6641 2.66219C2.23645 3.08667 1.99412 3.6631 1.98999 4.26563V19.7181C2.00687 20.9838 3.02249 22 4.27249 22H19.7119C20.3158 22.0002 20.8956 21.7626 21.3257 21.3386C21.7558 20.9146 22.0016 20.3383 22.01 19.7344V4.28188C21.9931 3.01625 20.9775 2 19.7275 2ZM21.32 19.7344C21.319 20.1564 21.1509 20.5608 20.8524 20.8591C20.554 21.1575 20.1495 21.3254 19.7275 21.3263H4.27249C3.85049 21.3254 3.44601 21.1575 3.14755 20.8591C2.8491 20.5608 2.68098 20.1564 2.67999 19.7344V12.6869H21.32V19.7344ZM21.32 11.655H2.67999V4.28188C2.6813 3.85969 2.84943 3.45514 3.14772 3.15637C3.44602 2.85761 3.85031 2.68885 4.27249 2.68688H19.7275C20.1495 2.68934 20.5535 2.85826 20.8517 3.15692C21.1499 3.45557 21.3182 3.85984 21.32 4.28188V11.655ZM16.5081 4.59438H7.44561C7.19499 4.59438 6.98999 4.8125 6.98999 5.06375V9.62375C6.98999 9.87438 7.17936 10.0963 7.44561 10.0963H16.5081C16.569 10.0954 16.6291 10.0824 16.6849 10.0581C16.7407 10.0338 16.7911 9.99862 16.8332 9.95465C16.8753 9.91069 16.9082 9.8588 16.9301 9.80199C16.952 9.74518 16.9624 9.6846 16.9606 9.62375V5.04688C16.9607 4.98743 16.949 4.92855 16.9263 4.87361C16.9036 4.81868 16.8703 4.76876 16.8283 4.72673C16.7862 4.68469 16.7363 4.65136 16.6814 4.62865C16.6264 4.60594 16.5676 4.59429 16.5081 4.59438Z" fill="white"/>
</g>
<defs>
<clipPath id="clip0_599_8743">
<rect width="20" height="20" fill="white" transform="translate(2 2)"/>
</clipPath>
</defs>
</svg>
