<svg width="24" height="10" viewBox="0 0 24 10" fill="none" xmlns="http://www.w3.org/2000/svg">
<path d="M20.0974 0.839079C20.5749 0.850118 21.106 0.878819 21.5913 0.924906C22.0163 0.965197 22.438 1.04054 22.8593 1.09877L22.9253 2.37733C22.0386 2.28019 21.1784 2.03623 20.2823 1.96531C19.4993 1.90349 17.485 1.85299 17.0829 2.54098C16.6535 3.27561 18.0508 3.67742 18.6748 3.88109C20.0708 4.33644 22.8761 4.91928 23.6793 5.9779C24.2849 6.77601 23.9989 7.70354 23.1041 8.25079C21.3707 9.31134 17.6847 9.23241 15.6027 9.07952C15.141 9.04558 14.4604 8.99894 14.0219 8.91339C13.9852 8.90621 13.9573 8.90373 13.936 8.87365V7.51395C14.6732 7.71237 15.4424 7.84014 16.2133 7.92211C17.2509 8.03249 19.96 8.29549 20.5352 7.39114C20.9686 6.7095 20.2331 6.33915 19.5808 6.08084C18.1225 5.50351 14.7406 4.88451 14.0984 3.60457C14.0462 3.50053 13.9956 3.37358 13.9791 3.26237C13.6885 1.27428 17.1913 0.895653 18.919 0.839079C19.2969 0.826661 19.7185 0.830248 20.0974 0.839079Z" fill="white"/>
<path d="M-0.000488281 9.13474V0.866699H6.74886C10.0786 0.919133 13.8111 2.12153 13.5679 5.33161C13.3615 8.05791 9.64212 9.1157 6.78254 9.13446H-0.000488281V9.13474ZM3.29858 8.00851C5.15591 7.98781 7.49584 8.15974 9.00359 7.10112C10.5113 6.0425 10.4743 3.91616 8.96991 2.87244C7.4332 1.80665 5.1778 2.00728 3.29858 1.99265V8.00823V8.00851Z" fill="white"/>
</svg>
