<svg width="24" height="24" viewBox="0 0 24 24" fill="none" xmlns="http://www.w3.org/2000/svg">
<g clip-path="url(#clip0_598_8738)">
<path d="M8.98393 2.59619V20.1432L12.8989 21.4042V6.68819C12.8989 5.99819 13.2029 5.53719 13.6929 5.69719C14.3289 5.87719 14.4529 6.51119 14.4529 7.20219V13.0772C16.8939 14.2702 18.8149 13.0752 18.8149 9.92519C18.8149 6.68819 17.6889 5.25019 14.3769 4.09819C13.0699 3.65019 10.6489 2.91219 8.98693 2.59619H8.98393ZM13.6399 18.8372L19.9359 16.5622C20.6509 16.3042 20.7619 15.9372 20.1819 15.7442C19.5959 15.5522 18.5449 15.6052 17.8249 15.8672L13.6199 17.3672V14.9802L13.8599 14.8952C13.8599 14.8952 15.0609 14.4752 16.7729 14.2802C18.4689 14.1002 20.5579 14.3102 22.2099 14.9412C24.0579 15.5422 24.2499 16.4132 23.7859 17.0132C23.3209 17.6132 22.1639 18.0492 22.1639 18.0492L13.6199 21.1562V18.8602L13.6399 18.8372ZM1.80693 18.6002C-0.0930728 18.0552 -0.407073 16.9322 0.454927 16.2802C1.25593 15.6942 2.61493 15.2282 2.61493 15.2282L8.22993 13.2152V15.5282L4.20493 17.0002C3.49993 17.2712 3.37993 17.6322 3.96593 17.8262C4.55193 18.0212 5.60293 17.9762 6.30893 17.7062L8.24693 17.0002V19.0742C8.12693 19.1042 7.99093 19.1182 7.85693 19.1472C5.91793 19.4782 3.86093 19.3432 1.81893 18.6682L1.80693 18.6002Z" fill="white"/>
</g>
<defs>
<clipPath id="clip0_598_8738">
<rect width="24" height="24" fill="white"/>
</clipPath>
</defs>
</svg>
