<svg width="24" height="24" viewBox="0 0 24 24" fill="none" xmlns="http://www.w3.org/2000/svg">
<path d="M10.3182 10.6131C10.4712 10.7891 10.6082 10.9481 10.7292 11.0901C11.0092 10.6851 11.3892 10.1366 11.8612 9.46007C13.3796 7.28353 14.91 5.11533 16.4522 2.95557C17.2097 1.89407 18.6722 1.27357 19.9922 2.00607C20.7777 2.44207 21.7147 3.11757 22.4527 4.12357C23.1847 5.12107 22.9692 6.37557 22.3987 7.23957C18.1172 13.7261 15.0272 17.6766 13.3067 19.7326C12.1817 21.0776 10.2162 21.1706 8.95318 19.9726C6.44578 17.5876 4.08907 15.049 1.89668 12.3716C1.12268 11.4236 0.893683 9.98507 1.74518 8.89357C2.29768 8.18607 2.92218 7.58607 3.47768 7.11707C4.70518 6.08057 6.42018 6.36007 7.43668 7.43707C8.41881 8.47608 9.37951 9.53464 10.3182 10.6131Z" fill="#E6001F"/>
</svg>
