<svg width="18" height="18" viewBox="0 0 18 18" fill="none" xmlns="http://www.w3.org/2000/svg">
<path d="M5.31716 14.5051C5.25325 14.5727 5.20329 14.6522 5.17013 14.7392C5.13697 14.8261 5.12126 14.9187 5.12389 15.0117C5.12652 15.1047 5.14744 15.1963 5.18547 15.2812C5.22349 15.3661 5.27786 15.4427 5.34549 15.5066C5.41312 15.5705 5.49267 15.6205 5.5796 15.6537C5.66653 15.6868 5.75914 15.7025 5.85215 15.6999C5.94516 15.6973 6.03673 15.6764 6.12165 15.6383C6.20657 15.6003 6.28317 15.5459 6.34707 15.4783L12.3679 9.10331C12.4922 8.97179 12.5615 8.79767 12.5615 8.61668C12.5615 8.4357 12.4922 8.26158 12.3679 8.13006L6.34707 1.75435C6.28359 1.68525 6.20701 1.62944 6.12178 1.59018C6.03654 1.55092 5.94436 1.52899 5.85058 1.52566C5.7568 1.52233 5.6633 1.53766 5.57549 1.57077C5.48769 1.60389 5.40734 1.65411 5.33912 1.71854C5.27089 1.78296 5.21614 1.86031 5.17806 1.94607C5.13997 2.03183 5.11931 2.12431 5.11727 2.21812C5.11522 2.31194 5.13184 2.40523 5.16616 2.49257C5.20047 2.57991 5.2518 2.65956 5.31716 2.72689L10.879 8.61668L5.31716 14.5051Z" fill="#9CA3AF"/>
</svg>
