<svg width="30" height="31" viewBox="0 0 30 31" fill="none" xmlns="http://www.w3.org/2000/svg">
<path d="M14.9988 1.40235C16.8052 1.40017 18.5948 1.75476 20.2637 2.44605C21.9315 3.13696 23.4465 4.15046 24.7217 5.42823L25.1892 5.91773C26.2496 7.08537 27.1014 8.42958 27.7063 9.8899C28.3971 11.5579 28.7519 13.3458 28.75 15.1511L28.7341 15.8274C28.6583 17.4028 28.3112 18.9557 27.7063 20.416C27.0154 22.0838 26.0007 23.5976 24.7229 24.8728C23.4472 26.1517 21.9325 27.1673 20.2637 27.8587C18.5948 28.5499 16.8052 28.9045 14.9988 28.9024V28.9011C13.1934 28.903 11.4055 28.5495 9.73756 27.8587C8.06858 27.1673 6.55167 26.153 5.27589 24.874V24.8728C3.99841 23.5978 2.98451 22.0835 2.29371 20.416C1.60242 18.7471 1.24782 16.9575 1.25001 15.1511C1.24815 13.3458 1.60288 11.5579 2.29371 9.8899C2.98505 8.22093 3.99934 6.70401 5.27833 5.42823C6.55363 4.15034 8.0696 3.13697 9.73756 2.44605C11.4055 1.75523 13.1934 1.40171 14.9988 1.40357V1.40235ZM14.9988 3.90235C13.5216 3.90053 12.0581 4.19033 10.6934 4.75563C9.32879 5.3209 8.08903 6.1501 7.04591 7.19581L7.04347 7.19825C5.99776 8.24137 5.16855 9.48114 4.60328 10.8457C4.03799 12.2104 3.74819 13.674 3.75001 15.1511V15.1536C3.74819 16.6307 4.03799 18.0943 4.60328 19.459C5.09797 20.6532 5.79541 21.7513 6.66261 22.7061L7.04347 23.1065L7.04591 23.1089C8.08903 24.1546 9.32879 24.9838 10.6934 25.5491C12.0581 26.1144 13.5216 26.4042 14.9988 26.4024H15.0012C16.4784 26.4042 17.942 26.1144 19.3067 25.5491C20.6712 24.9838 21.911 24.1546 22.9541 23.1089L22.9566 23.1065C24.0023 22.0633 24.8315 20.8236 25.3967 19.459C25.962 18.0943 26.2518 16.6307 26.25 15.1536V15.1511C26.2518 13.674 25.962 12.2104 25.3967 10.8457C24.8315 9.48114 24.0023 8.24137 22.9566 7.19825L22.9541 7.19581C21.911 6.1501 20.6712 5.3209 19.3067 4.75563C17.942 4.19033 16.4784 3.90053 15.0012 3.90235H14.9988Z" fill="#0070CC"/>
<path d="M20.3661 10.5185C20.8543 10.0303 21.6455 10.0303 22.1337 10.5185C22.6219 11.0066 22.6219 11.7979 22.1337 12.286L14.6337 19.786C14.1455 20.2742 13.3543 20.2742 12.8661 19.786L9.11612 16.036C8.62796 15.5479 8.62796 14.7566 9.11612 14.2685C9.57376 13.8108 10.2975 13.7826 10.7885 14.183L10.8837 14.2685L13.7499 17.1347L20.3661 10.5185Z" fill="#0070CC"/>
</svg>
