<svg width="74" height="38" viewBox="0 0 74 38" fill="none" xmlns="http://www.w3.org/2000/svg">
<path d="M69 0.282837C71.7613 0.282961 74 2.52149 74 5.28284V27.1041C74 29.8655 71.7613 32.104 69 32.1041H40.9951L38.8652 36.235C38.1203 37.679 36.0546 37.6789 35.3096 36.235L33.1787 32.1041H5.1748C2.41338 32.1041 0.174805 29.8655 0.174805 27.1041V5.28284C0.174805 2.52141 2.41338 0.282837 5.1748 0.282837H69Z" fill="#E6001F"/>
<path d="M25.9014 13.9723C25.792 12.9254 24.8701 12.316 23.5732 12.316C22.1826 12.316 21.3076 13.0192 21.3076 13.9879C21.3076 15.066 22.4795 15.4723 23.3701 15.691L24.4639 15.9879C25.917 16.3317 27.7139 17.1285 27.7295 19.1754C27.7139 21.0817 26.1982 22.4879 23.5264 22.4879C20.9951 22.4879 19.4014 21.2223 19.292 19.1598H21.0107C21.1201 20.3942 22.1982 20.9879 23.5264 20.9879C24.9639 20.9879 26.0107 20.2535 26.0264 19.1442C26.0107 18.1598 25.0889 17.7535 23.8857 17.441L22.542 17.0817C20.7295 16.5817 19.5889 15.6598 19.5889 14.0817C19.5889 12.1285 21.3389 10.8317 23.6201 10.8317C25.917 10.8317 27.5264 12.1442 27.5732 13.9723H25.9014ZM29.9682 22.3004H28.1401L32.2026 10.9879H34.187L38.2651 22.3004H36.437L35.4057 19.316H30.9995L29.9682 22.3004ZM31.4995 17.8785H34.9057L33.2339 13.0504H33.1557L31.4995 17.8785ZM39.2226 22.3004V10.9879H40.9414V20.816H46.0507V22.3004H39.2226ZM47.3364 22.3004V10.9879H54.4301V12.4723H49.0551V15.8942H54.0551V17.3629H49.0551V20.816H54.4926V22.3004H47.3364Z" fill="white"/>
</svg>
