<svg width="13" height="12" viewBox="0 0 13 12" fill="none" xmlns="http://www.w3.org/2000/svg">
<path fill-rule="evenodd" clip-rule="evenodd" d="M7.33383 11.2465C7.24943 11.3957 7.12795 11.5196 6.98163 11.6058C6.83531 11.6919 6.66931 11.7373 6.50032 11.7373C6.33134 11.7373 6.16533 11.6919 6.01901 11.6058C5.87269 11.5196 5.75122 11.3957 5.66681 11.2465L0.128899 1.4712C0.0444565 1.32214 9.82044e-07 1.15305 1.33224e-08 0.980933C-9.55399e-07 0.808815 0.0444527 0.639728 0.128893 0.490668C0.213332 0.341607 0.334784 0.217826 0.48104 0.131765C0.627295 0.0457021 0.793203 0.000392074 0.962087 0.000388244L12.0379 0.000387276C12.2068 0.000391076 12.3727 0.0457011 12.519 0.131764C12.6652 0.217825 12.7867 0.341606 12.8711 0.490666C12.9555 0.639727 13 0.808814 13 0.980932C13 1.15305 12.9555 1.32214 12.8711 1.4712L7.33319 11.2465L7.33383 11.2465Z" fill="#404750"/>
</svg>
