<svg width="24" height="24" viewBox="0 0 24 24" fill="none" xmlns="http://www.w3.org/2000/svg">
<path d="M10.8779 10C11.3376 10 11.7927 9.90947 12.2173 9.73358C12.642 9.55769 13.0278 9.29988 13.3528 8.97487C13.6778 8.64987 13.9356 8.26403 14.1115 7.83939C14.2874 7.41475 14.3779 6.95963 14.3779 6.5C14.3779 6.04037 14.2874 5.58525 14.1115 5.16061C13.9356 4.73597 13.6778 4.35013 13.3528 4.02513C13.0278 3.70012 12.642 3.44231 12.2173 3.26642C11.7927 3.09053 11.3376 3 10.8779 3C9.94967 3 9.05943 3.36875 8.40306 4.02513C7.74668 4.6815 7.37793 5.57174 7.37793 6.5C7.37793 7.42826 7.74668 8.3185 8.40306 8.97487C9.05943 9.63125 9.94967 10 10.8779 10ZM1.87793 20.4V21H19.8779V20.4C19.8779 18.16 19.8779 17.04 19.4419 16.184C19.0584 15.4314 18.4465 14.8195 17.6939 14.436C16.8379 14 15.7179 14 13.4779 14H8.27793C6.03793 14 4.91793 14 4.06193 14.436C3.30931 14.8195 2.69742 15.4314 2.31393 16.184C1.87793 17.04 1.87793 18.16 1.87793 20.4Z" stroke="#191C21" stroke-width="2" stroke-linecap="round" stroke-linejoin="round"/>
<path d="M10.8779 10C11.3376 10 11.7927 9.90947 12.2173 9.73358C12.642 9.55769 13.0278 9.29988 13.3528 8.97487C13.6778 8.64987 13.9356 8.26403 14.1115 7.83939C14.2874 7.41475 14.3779 6.95963 14.3779 6.5C14.3779 6.04037 14.2874 5.58525 14.1115 5.16061C13.9356 4.73597 13.6778 4.35013 13.3528 4.02513C13.0278 3.70012 12.642 3.44231 12.2173 3.26642C11.7927 3.09053 11.3376 3 10.8779 3C9.94967 3 9.05943 3.36875 8.40306 4.02513C7.74668 4.6815 7.37793 5.57174 7.37793 6.5C7.37793 7.42826 7.74668 8.3185 8.40306 8.97487C9.05943 9.63125 9.94967 10 10.8779 10ZM1.87793 20.4V21H19.8779V20.4C19.8779 18.16 19.8779 17.04 19.4419 16.184C19.0584 15.4314 18.4465 14.8195 17.6939 14.436C16.8379 14 15.7179 14 13.4779 14H8.27793C6.03793 14 4.91793 14 4.06193 14.436C3.30931 14.8195 2.69742 15.4314 2.31393 16.184C1.87793 17.04 1.87793 18.16 1.87793 20.4Z" stroke="black" stroke-opacity="0.2" stroke-width="2" stroke-linecap="round" stroke-linejoin="round"/>
<path d="M19.251 6.58346C19.251 6.26313 18.9898 6 18.6675 6C18.3453 6 18.0822 6.26313 18.0841 6.58346V8.08406H16.5835C16.2631 8.08406 16 8.34529 16 8.66753C16 8.98786 16.2631 9.25099 16.5835 9.25099H18.0841V10.7497C18.0841 11.07 18.3453 11.3331 18.6675 11.3331C18.9879 11.3331 19.251 11.0719 19.251 10.7497V9.25099H20.7497C21.07 9.25099 21.3331 8.98976 21.3331 8.66753C21.3331 8.34719 21.0719 8.08406 20.7497 8.08406H19.251V6.58346Z" fill="#191C21"/>
<path d="M19.251 6.58346C19.251 6.26313 18.9898 6 18.6675 6C18.3453 6 18.0822 6.26313 18.0841 6.58346V8.08406H16.5835C16.2631 8.08406 16 8.34529 16 8.66753C16 8.98786 16.2631 9.25099 16.5835 9.25099H18.0841V10.7497C18.0841 11.07 18.3453 11.3331 18.6675 11.3331C18.9879 11.3331 19.251 11.0719 19.251 10.7497V9.25099H20.7497C21.07 9.25099 21.3331 8.98976 21.3331 8.66753C21.3331 8.34719 21.0719 8.08406 20.7497 8.08406H19.251V6.58346Z" fill="black" fill-opacity="0.2"/>
</svg>
