<svg width="26" height="34" viewBox="0 0 26 34" fill="none" xmlns="http://www.w3.org/2000/svg">
<path d="M22.8648 20.0751C23.4831 19.4567 24.4854 19.4567 25.1037 20.0751C25.7221 20.6934 25.7221 21.6957 25.1037 22.314L14.0204 33.3973C13.4021 34.0157 12.3998 34.0157 11.7815 33.3973L0.698123 22.314C0.0797925 21.6957 0.0797925 20.6934 0.698123 20.0751C1.31645 19.4567 2.31872 19.4567 2.93705 20.0751L12.9009 30.0389L22.8648 20.0751Z" fill="#E6001F"/>
<path d="M22.8648 10.5751C23.4831 9.95675 24.4854 9.95675 25.1037 10.5751C25.7221 11.1934 25.7221 12.1957 25.1037 12.814L14.0204 23.8973C13.4021 24.5157 12.3998 24.5157 11.7815 23.8973L0.698123 12.814C0.0797925 12.1957 0.0797925 11.1934 0.698123 10.5751C1.31645 9.95675 2.31872 9.95675 2.93705 10.5751L12.9009 20.5389L22.8648 10.5751Z" fill="#E6001F"/>
<path d="M22.8648 1.07508C23.4831 0.456746 24.4854 0.456746 25.1037 1.07508C25.7221 1.69341 25.7221 2.69568 25.1037 3.31401L14.0204 14.3973C13.4021 15.0157 12.3998 15.0157 11.7815 14.3973L0.698123 3.31401C0.0797925 2.69568 0.0797925 1.69341 0.698123 1.07508C1.31645 0.456746 2.31872 0.456746 2.93705 1.07508L12.9009 11.0389L22.8648 1.07508Z" fill="#E6001F"/>
</svg>
