<svg width="17" height="17" viewBox="0 0 17 17" fill="none" xmlns="http://www.w3.org/2000/svg">
<path d="M13.0136 4.88924C13.2788 4.88924 13.5332 4.78389 13.7207 4.59635C13.9082 4.40881 14.0136 4.15446 14.0136 3.88924C14.0136 3.62403 13.9082 3.36967 13.7207 3.18213C13.5332 2.9946 13.2788 2.88924 13.0136 2.88924C12.7484 2.88924 12.494 2.9946 12.3065 3.18213C12.1189 3.36967 12.0136 3.62403 12.0136 3.88924C12.0136 4.15446 12.1189 4.40881 12.3065 4.59635C12.494 4.78389 12.7484 4.88924 13.0136 4.88924ZM2.40692 7.94257L8.40692 1.94257C8.64692 1.70257 8.98026 1.55591 9.34692 1.55591H14.0136C14.7536 1.55591 15.3469 2.14924 15.3469 2.88924V7.55591C15.3469 7.92257 15.2003 8.25591 14.9536 8.49591L8.96026 14.4959C8.71359 14.7359 8.38026 14.8892 8.01359 14.8892C7.64692 14.8892 7.31359 14.7359 7.07359 14.4959L2.40692 9.82924C2.16026 9.58924 2.01359 9.25591 2.01359 8.88924C2.01359 8.51591 2.16692 8.18258 2.40692 7.94257Z" fill="#FF9500"/>
</svg>
