<svg width="30" height="30" viewBox="0 0 30 30" fill="none" xmlns="http://www.w3.org/2000/svg">
<path d="M14.9988 1.25001C16.8052 1.24782 18.5948 1.60242 20.2637 2.29371C21.9315 2.98462 23.4465 3.99812 24.7217 5.27589L25.1892 5.76539C26.2496 6.93302 27.1014 8.27723 27.7063 9.73756C28.3971 11.4055 28.7519 13.1934 28.75 14.9988L28.7341 15.6751C28.6583 17.2505 28.3112 18.8034 27.7063 20.2637C27.0154 21.9315 26.0007 23.4453 24.7229 24.7205C23.4472 25.9993 21.9325 27.015 20.2637 27.7063C18.5948 28.3976 16.8052 28.7522 14.9988 28.75V28.7488C13.1934 28.7507 11.4055 28.3971 9.73756 27.7063C8.06858 27.015 6.55167 26.0007 5.27589 24.7217V24.7205C3.99841 23.4454 2.98451 21.9312 2.29371 20.2637C1.60242 18.5948 1.24782 16.8052 1.25001 14.9988C1.24815 13.1934 1.60288 11.4055 2.29371 9.73756C2.98505 8.06858 3.99934 6.55167 5.27833 5.27589C6.55363 3.998 8.0696 2.98463 9.73756 2.29371C11.4055 1.60288 13.1934 1.24937 14.9988 1.25123V1.25001ZM14.9988 3.75001C13.5216 3.74819 12.0581 4.03799 10.6934 4.60328C9.32879 5.16855 8.08903 5.99776 7.04591 7.04347L7.04347 7.04591C5.99776 8.08903 5.16855 9.32879 4.60328 10.6934C4.03799 12.0581 3.74819 13.5216 3.75001 14.9988V15.0012C3.74819 16.4784 4.03799 17.942 4.60328 19.3067C5.09797 20.5008 5.79541 21.5989 6.66261 22.5537L7.04347 22.9541L7.04591 22.9566C8.08903 24.0023 9.32879 24.8315 10.6934 25.3967C12.0581 25.962 13.5216 26.2518 14.9988 26.25H15.0012C16.4784 26.2518 17.942 25.962 19.3067 25.3967C20.6712 24.8315 21.911 24.0023 22.9541 22.9566L22.9566 22.9541C24.0023 21.911 24.8315 20.6712 25.3967 19.3067C25.962 17.942 26.2518 16.4784 26.25 15.0012V14.9988C26.2518 13.5216 25.962 12.0581 25.3967 10.6934C24.8315 9.32879 24.0023 8.08903 22.9566 7.04591L22.9541 7.04347C21.911 5.99776 20.6712 5.16855 19.3067 4.60328C17.942 4.03799 16.4784 3.74819 15.0012 3.75001H14.9988Z" fill="white"/>
<path d="M20.3661 10.3661C20.8543 9.87796 21.6455 9.87796 22.1337 10.3661C22.6219 10.8543 22.6219 11.6455 22.1337 12.1337L14.6337 19.6337C14.1455 20.1218 13.3543 20.1218 12.8661 19.6337L9.11612 15.8837C8.62796 15.3955 8.62796 14.6043 9.11612 14.1161C9.57376 13.6585 10.2975 13.6302 10.7885 14.0307L10.8837 14.1161L13.7499 16.9823L20.3661 10.3661Z" fill="white"/>
</svg>
