<svg width="16" height="16" viewBox="0 0 16 16" fill="none" xmlns="http://www.w3.org/2000/svg">
<path d="M15.2361 10.9202C15.1231 10.176 14.7233 7.54564 14.5074 6.12206C14.042 2.71201 11.4408 2.69106 11.4408 2.69106C11.4408 2.69106 9.25756 2.67557 7.99519 2.6774C6.73281 2.67557 4.54961 2.69106 4.54961 2.69106C4.54961 2.69106 1.94836 2.71109 1.48294 6.12206C1.27254 7.5083 0.888182 10.0376 0.764313 10.8573C0.716951 11.1697 0.717862 11.4876 0.776154 11.7982C0.868145 12.2918 1.11406 12.9176 1.75709 13.1753C2.89013 13.6307 3.82188 12.9531 4.30734 12.2135C4.66165 11.718 5.72455 9.91646 5.72455 9.91646H10.2686C10.2686 9.91646 11.3315 11.718 11.6858 12.2135C12.1712 12.9522 13.103 13.6307 14.236 13.1753C15.0193 12.8602 15.2133 11.9995 15.2579 11.4976C15.2752 11.3045 15.267 11.1114 15.2379 10.9193L15.2361 10.9202ZM7.15269 6.79696C7.15269 7.02193 6.97053 7.20409 6.74557 7.20409H5.76372V8.18594C5.76372 8.41091 5.58156 8.59307 5.35659 8.59307H4.94673C4.72176 8.59307 4.5396 8.41091 4.5396 8.18594V7.20409H3.55775C3.33278 7.20409 3.15062 7.02193 3.15062 6.79696V6.3871C3.15062 6.16213 3.33278 5.97997 3.55775 5.97997H4.5396V4.99812C4.5396 4.77315 4.72176 4.59099 4.94673 4.59099H5.35659C5.58156 4.59099 5.76372 4.77315 5.76372 4.99812V5.97997H6.74557C6.97053 5.97997 7.15269 6.16213 7.15269 6.3871V6.79696ZM9.50894 7.12667C9.18014 7.12667 8.91328 6.85981 8.91328 6.53101C8.91328 6.20221 9.18014 5.93534 9.50894 5.93534C9.83774 5.93534 10.1046 6.20221 10.1046 6.53101C10.1046 6.85981 9.83774 7.12667 9.50894 7.12667ZM10.9325 8.53113C10.6037 8.53113 10.3369 8.26427 10.3369 7.93547C10.3369 7.60667 10.6037 7.3398 10.9325 7.3398C11.2613 7.3398 11.5282 7.60667 11.5282 7.93547C11.5282 8.26427 11.2613 8.53113 10.9325 8.53113ZM10.9325 5.75682C10.6037 5.75682 10.3369 5.48996 10.3369 5.16116C10.3369 4.83236 10.6037 4.56549 10.9325 4.56549C11.2613 4.56549 11.5282 4.83236 11.5282 5.16116C11.5282 5.48996 11.2613 5.75682 10.9325 5.75682ZM12.4272 7.12667C12.0984 7.12667 11.8315 6.85981 11.8315 6.53101C11.8315 6.20221 12.0984 5.93534 12.4272 5.93534C12.756 5.93534 13.0228 6.20221 13.0228 6.53101C13.0228 6.85981 12.756 7.12667 12.4272 7.12667Z" fill="#E6001F"/>
</svg>
