<svg width="1102" height="142" viewBox="0 0 1102 142" fill="none" xmlns="http://www.w3.org/2000/svg">
<g clip-path="url(#clip0_197_4005)">
<path d="M308.609 64.8101V34.2001H283.329V10.3601H248.439V34.1901H229.359V64.8001H248.439V122.8L267.549 141.91H307.859V112.16H283.329V64.8001H308.609V64.8101Z" fill="#E60012"/>
<path d="M415.562 113.08H358.562C356.582 113.08 354.982 111.48 354.982 109.5V99.9199H422.202V51.1799C415.452 44.4299 411.662 40.6399 404.912 33.8899H338.052C331.302 40.6399 327.512 44.4299 320.762 51.1799V124.62C327.512 131.37 331.302 135.16 338.052 141.91H415.562V113.08ZM354.972 64.9999H388.142V79.4999H354.972V64.9999Z" fill="#E60012"/>
<path d="M435.248 33.8899V141.92H469.468V64.9999C469.468 64.9999 505.688 64.3899 505.688 64.9999V141.92H539.908V52.3899L520.018 33.8899H477.578L471.798 40.7199C471.798 40.7199 470.878 41.5299 470.248 41.1799C469.618 40.8299 469.758 39.4699 469.758 39.4699V33.8899H435.238H435.248Z" fill="#E60012"/>
<path d="M203.56 34.0801H135.23C128.2 41.1101 124.26 45.0501 117.23 52.0801V123.91C124.26 130.94 128.2 134.88 135.23 141.91H203.56L221.56 123.91V52.0801L203.56 34.0801ZM187.97 112.08H153.64V64.7001H187.97V112.08Z" fill="#E60012"/>
<path d="M84.1 0.65L0 0V141.92H34.67V103.75H85.34L109.22 79.87V25.75L84.1 0.65ZM74.47 69.02H35.05V35.52H74.47V69.02Z" fill="#E60012"/>
<path d="M1095.19 113.08H1038.19C1036.21 113.08 1034.61 111.48 1034.61 109.5V99.9199H1101.83V51.1799C1095.08 44.4299 1091.29 40.6399 1084.54 33.8899H1017.68C1010.93 40.6399 1007.14 44.4299 1000.39 51.1799V124.62C1007.14 131.37 1010.93 135.16 1017.68 141.91H1095.19V113.08ZM1034.6 64.9999H1067.77V79.4999H1034.6V64.9999Z" fill="#404750"/>
<path d="M688.26 62.0801H635.82V92.0201H660.38V111.63H608.32V42.4701H688.26V9.08008H593.84L574.59 28.3301V122C582.37 129.78 586.73 134.14 594.51 141.92H693.76V62.0801H688.26Z" fill="#404750"/>
<path d="M777.119 141.76H810.619V54.0001L791.949 35.8301H717.369V63.8301H778.369V77.2501H724.369L707.449 96.5001V123C707.449 123 724.869 142.17 724.869 141.92C724.869 141.67 769.199 141.92 769.199 141.92L777.119 133.59V141.77V141.76ZM776.759 114H740.429V97.9601H776.759V114Z" fill="#404750"/>
<path d="M966.482 36.8101H927.822L915.692 47.2101L905.292 36.8101H869.102L860.542 46.0001V36.8101H827.422V141.92H859.922V66.5901H891.592V141.92H924.092V66.5901H953.762V141.92H986.262V54.0301C980.272 48.8301 971.002 40.7701 966.492 36.8101H966.482Z" fill="#404750"/>
</g>
<defs>
<clipPath id="clip0_197_4005">
<rect width="1101.82" height="141.92" fill="white"/>
</clipPath>
</defs>
</svg>
