<svg width="800" height="104" viewBox="0 0 800 104" fill="none" xmlns="http://www.w3.org/2000/svg">
<g clip-path="url(#clip0_368_8075)">
<path d="M224.073 47.0567V24.8316H205.718V7.52209H180.385V24.8244H166.532V47.0494H180.385V89.1616L194.26 103.037H223.528V81.4362H205.718V47.0494H224.073V47.0567Z" fill="#E60012"/>
<path d="M301.726 82.1042H260.34C258.903 82.1042 257.741 80.9425 257.741 79.5048V72.5491H306.547V37.1603C301.646 32.2594 298.895 29.5075 293.994 24.6066H245.448C240.547 29.5075 237.796 32.2594 232.895 37.1603V90.483C237.796 95.384 240.547 98.1358 245.448 103.037H301.726V82.1042ZM257.734 47.1947H281.817V57.7227H257.734V47.1947Z" fill="#E60012"/>
<path d="M316.023 24.6066V103.044H340.869V47.1947C340.869 47.1947 367.167 46.7517 367.167 47.1947V103.044H392.013V38.0389L377.572 24.6066H346.757L342.56 29.5656C342.56 29.5656 341.893 30.1538 341.435 29.8996C340.978 29.6455 341.079 28.658 341.079 28.658V24.6066H316.015H316.023Z" fill="#E60012"/>
<path d="M147.799 24.7445H98.1867C93.0824 29.8488 90.2217 32.7095 85.1174 37.8138V89.9675C90.2217 95.0718 93.0824 97.9325 98.1867 103.037H147.799L160.868 89.9675V37.8138L147.799 24.7445ZM136.48 81.3781H111.554V46.9768H136.48V81.3781Z" fill="#E60012"/>
<path d="M61.0626 0.471946L0 0V103.044H25.1729V75.3299H61.9629L79.3015 57.9913V18.6963L61.0626 0.471946ZM54.0705 50.1135H25.4488V25.7901H54.0705V50.1135Z" fill="#E60012"/>
<path d="M795.186 82.1042H753.8C752.362 82.1042 751.201 80.9425 751.201 79.5048V72.5491H800.007V37.1603C795.106 32.2594 792.355 29.5075 787.454 24.6066H738.908C734.007 29.5075 731.256 32.2594 726.355 37.1603V90.483C731.256 95.384 734.007 98.1358 738.908 103.037H795.186V82.1042ZM751.193 47.1947H775.277V57.7227H751.193V47.1947Z" fill="#404750"/>
<path d="M499.726 45.0746H461.651V66.8131H479.483V81.0514H441.684V30.8363H499.726V6.59277H431.17L417.193 20.5696V88.5808C422.842 94.2296 426.008 97.3953 431.657 103.044H503.719V45.0746H499.726Z" fill="#404750"/>
<path d="M564.245 102.928H588.568V39.2079L575.012 26.0151H520.862V46.3451H565.152V56.089H525.944L513.659 70.0659V89.3068C513.659 89.3068 526.307 103.226 526.307 103.044C526.307 102.863 558.494 103.044 558.494 103.044L564.245 96.9959V102.935V102.928ZM563.983 82.7721H537.605V71.126H563.983V82.7721Z" fill="#404750"/>
<path d="M701.734 26.7267H673.664L664.856 34.2778L657.305 26.7267H631.029L624.814 33.3993V26.7267H600.766V103.044H624.363V48.3491H647.358V103.044H670.955V48.3491H692.498V103.044H716.095V39.2296C711.746 35.4541 705.015 29.6019 701.741 26.7267H701.734Z" fill="#404750"/>
</g>
<defs>
<clipPath id="clip0_368_8075">
<rect width="800" height="103.044" fill="white"/>
</clipPath>
</defs>
</svg>
