<svg width="800" height="104" viewBox="0 0 800 104" fill="none" xmlns="http://www.w3.org/2000/svg">
<g clip-path="url(#clip0_368_8085)">
<path d="M224.073 47.9499V25.7248H205.718V8.41528H180.385V25.7176H166.532V47.9426H180.385V90.0548L194.26 103.93H223.528V82.3294H205.718V47.9426H224.073V47.9499Z" fill="white"/>
<path d="M301.726 82.9974H260.34C258.903 82.9974 257.741 81.8356 257.741 80.398V73.4423H306.547V38.0535C301.646 33.1525 298.895 30.4007 293.994 25.4998H245.448C240.547 30.4007 237.796 33.1525 232.895 38.0535V91.3762C237.796 96.2772 240.547 99.029 245.448 103.93H301.726V82.9974ZM257.734 48.0878H281.817V58.6159H257.734V48.0878Z" fill="white"/>
<path d="M316.023 25.4998V103.937H340.869V48.0878C340.869 48.0878 367.167 47.6449 367.167 48.0878V103.937H392.013V38.9321L377.572 25.4998H346.757L342.56 30.4588C342.56 30.4588 341.893 31.0469 341.435 30.7928C340.978 30.5387 341.079 29.5512 341.079 29.5512V25.4998H316.015H316.023Z" fill="white"/>
<path d="M147.799 25.6377H98.1867C93.0824 30.742 90.2217 33.6027 85.1174 38.707V90.8607C90.2217 95.965 93.0824 98.8257 98.1867 103.93H147.799L160.868 90.8607V38.707L147.799 25.6377ZM136.48 82.2713H111.554V47.87H136.48V82.2713Z" fill="white"/>
<path d="M61.0626 1.36513L0 0.893188V103.937H25.1729V76.2231H61.9629L79.3015 58.8845V19.5895L61.0626 1.36513ZM54.0705 51.0066H25.4488V26.6832H54.0705V51.0066Z" fill="white"/>
<path d="M795.186 82.9974H753.8C752.362 82.9974 751.201 81.8356 751.201 80.398V73.4423H800.007V38.0535C795.106 33.1525 792.355 30.4007 787.454 25.4998H738.908C734.007 30.4007 731.256 33.1525 726.355 38.0535V91.3762C731.256 96.2772 734.007 99.029 738.908 103.93H795.186V82.9974ZM751.193 48.0878H775.277V58.6159H751.193V48.0878Z" fill="white"/>
<path d="M499.726 45.9678H461.651V67.7063H479.483V81.9446H441.684V31.7295H499.726V7.48596H431.17L417.193 21.4628V89.474C422.842 95.1228 426.008 98.2885 431.657 103.937H503.719V45.9678H499.726Z" fill="white"/>
<path d="M564.245 103.821H588.568V40.101L575.012 26.9083H520.862V47.2383H565.152V56.9822H525.944L513.659 70.9591V90.2C513.659 90.2 526.307 104.119 526.307 103.937C526.307 103.756 558.494 103.937 558.494 103.937L564.245 97.8891V103.828V103.821ZM563.983 83.6653H537.605V72.0191H563.983V83.6653Z" fill="white"/>
<path d="M701.734 27.6199H673.664L664.856 35.171L657.305 27.6199H631.029L624.814 34.2925V27.6199H600.766V103.937H624.363V49.2423H647.358V103.937H670.955V49.2423H692.498V103.937H716.095V40.1228C711.746 36.3472 705.015 30.4951 701.741 27.6199H701.734Z" fill="white"/>
</g>
<defs>
<clipPath id="clip0_368_8085">
<rect width="800" height="103.044" fill="white" transform="translate(0 0.893188)"/>
</clipPath>
</defs>
</svg>
