<svg width="800" height="317" viewBox="0 0 800 317" fill="none" xmlns="http://www.w3.org/2000/svg">
<g clip-path="url(#clip0_251_9592)">
<path d="M345.424 70.8788V37.4025H317.128V11.3301H278.076V37.3915H256.72V70.8679H278.076V134.299L299.466 155.198H344.584V122.663H317.128V70.8679H345.424V70.8788Z" fill="#E60012"/>
<path d="M465.131 123.669H401.332C399.116 123.669 397.325 121.919 397.325 119.754V109.277H472.564V55.9725C465.008 48.5904 460.766 44.4455 453.211 37.0635H378.375C370.82 44.4455 366.578 48.5904 359.023 55.9725V136.289C366.578 143.672 370.82 147.816 378.375 155.198H465.131V123.669ZM397.314 71.0866H434.441V86.9444H397.314V71.0866Z" fill="#E60012"/>
<path d="M487.17 37.0635V155.209H525.472V71.0866C525.472 71.0866 566.013 70.4195 566.013 71.0866V155.209H604.315V57.2958L582.052 37.0635H534.55L528.08 44.533C528.08 44.533 527.05 45.4189 526.345 45.0361C525.64 44.6533 525.797 43.166 525.797 43.166V37.0635H487.159H487.17Z" fill="#E60012"/>
<path d="M227.842 37.2712H151.361C143.493 44.9595 139.083 49.2685 131.214 56.9568V135.513C139.083 143.201 143.493 147.51 151.361 155.198H227.842L247.989 135.513V56.9568L227.842 37.2712ZM210.393 122.575H171.967V70.7585H210.393V122.575Z" fill="#E60012"/>
<path d="M94.1321 0.710866L0 0V155.209H38.8057V113.465H95.5201L122.249 87.3491V28.1612L94.1321 0.710866ZM83.3534 75.4831H39.2311V38.8461H83.3534V75.4831Z" fill="#E60012"/>
<path d="M703.417 285.353H639.617C637.401 285.353 635.61 283.603 635.61 281.437V270.96H710.849V217.656C703.294 210.274 699.051 206.129 691.496 198.747H616.661C609.105 206.129 604.863 210.274 597.308 217.656V297.973C604.863 305.355 609.105 309.5 616.661 316.882H703.417V285.353ZM635.599 232.77H672.726V248.628H635.599V232.77Z" fill="#404750"/>
<path d="M247.945 229.577H189.249V262.32H216.739V283.767H158.469V208.12H247.945V171.603H142.262L120.715 192.656V295.097C129.423 303.605 134.303 308.374 143.011 316.882H254.101V229.577H247.945Z" fill="#404750"/>
<path d="M347.416 316.718H384.912V220.74L364.015 200.869H280.538V231.491H348.815V246.167H288.373L269.435 267.22V296.202C269.435 296.202 288.933 317.167 288.933 316.893C288.933 316.62 338.551 316.893 338.551 316.893L347.416 307.783V316.729V316.718ZM347.002 286.359H306.338V268.817H347.002V286.359Z" fill="#404750"/>
<path d="M559.364 201.941H516.093L502.516 213.315L490.875 201.941H450.368L440.787 211.991V201.941H403.716V316.893H440.093V234.509H475.541V316.893H511.918V234.509H545.127V316.893H581.504V220.773C574.799 215.086 564.423 206.271 559.375 201.941H559.364Z" fill="#404750"/>
<path d="M799.899 133.293C800.112 130.974 800.011 128.656 799.653 126.348C798.265 117.413 793.351 85.8289 790.699 68.7353C784.979 27.7894 753.012 27.5379 753.012 27.5379C753.012 27.5379 726.183 27.352 710.67 27.3739C695.156 27.352 668.327 27.5379 668.327 27.5379C668.327 27.5379 636.36 27.7785 630.641 68.7353C628.055 85.3805 623.332 115.751 621.809 125.594C621.227 129.345 621.239 133.162 621.955 136.891C623.085 142.819 626.107 150.332 634.01 153.427C647.934 158.895 659.384 150.758 665.35 141.878C669.704 135.929 682.766 114.296 682.766 114.296H738.607C738.607 114.296 751.669 135.929 756.023 141.878C761.989 150.747 773.439 158.895 787.363 153.427C796.989 149.643 799.373 139.308 799.922 133.282L799.899 133.293Z" fill="#404750"/>
<path d="M673.196 98.9636C670.129 98.9636 667.633 96.5248 667.633 93.5282V82.2856H656.127C653.06 82.2856 650.564 79.8468 650.564 76.8502V71.9288C650.564 68.9323 653.06 66.4934 656.127 66.4934H667.633V55.2508C667.633 52.2542 670.129 49.8154 673.196 49.8154H678.233C681.3 49.8154 683.796 52.2542 683.796 55.2508V66.4934H695.302C698.369 66.4934 700.865 68.9323 700.865 71.9288V76.8502C700.865 79.8468 698.369 82.2856 695.302 82.2856H683.796V93.5282C683.796 96.5248 681.3 98.9636 678.233 98.9636H673.196Z" fill="#D3D3D3"/>
<path d="M678.233 50.3622C680.997 50.3622 683.236 52.5495 683.236 55.2508V67.0402H695.302C698.066 67.0402 700.305 69.2275 700.305 71.9288V76.8502C700.305 79.5514 698.066 81.7387 695.302 81.7387H683.236V93.5282C683.236 96.2295 680.997 98.4167 678.233 98.4167H673.196C670.431 98.4167 668.193 96.2295 668.193 93.5282V81.7387H656.127C653.362 81.7387 651.123 79.5514 651.123 76.8502V71.9288C651.123 69.2275 653.362 67.0402 656.127 67.0402H668.193V55.2508C668.193 52.5495 670.431 50.3622 673.196 50.3622H678.233ZM678.233 49.2686H673.196C669.816 49.2686 667.073 51.948 667.073 55.2508V65.9466H656.127C652.746 65.9466 650.004 68.626 650.004 71.9288V76.8502C650.004 80.1529 652.746 82.8324 656.127 82.8324H667.073V93.5282C667.073 96.831 669.816 99.5104 673.196 99.5104H678.233C681.613 99.5104 684.355 96.831 684.355 93.5282V82.8324H695.302C698.682 82.8324 701.424 80.1529 701.424 76.8502V71.9288C701.424 68.626 698.682 65.9466 695.302 65.9466H684.355V55.2508C684.355 51.948 681.613 49.2686 678.233 49.2686Z" fill="#A8A8A8"/>
<path d="M746.767 64.9077C742.424 64.9077 738.887 61.4518 738.887 57.2085C738.887 52.9652 742.424 49.5093 746.767 49.5093C751.11 49.5093 754.646 52.9652 754.646 57.2085C754.646 61.4518 751.11 64.9077 746.767 64.9077Z" fill="#D3D3D3"/>
<path d="M746.767 50.056C750.807 50.056 754.087 53.2604 754.087 57.2085C754.087 61.1565 750.807 64.3609 746.767 64.3609C742.726 64.3609 739.447 61.1565 739.447 57.2085C739.447 53.2604 742.726 50.056 746.767 50.056ZM746.767 48.9624C742.11 48.9624 738.327 52.6589 738.327 57.2085C738.327 61.758 742.11 65.4545 746.767 65.4545C751.423 65.4545 755.206 61.758 755.206 57.2085C755.206 52.6589 751.423 48.9624 746.767 48.9624Z" fill="#A8A8A8"/>
<path d="M746.767 98.22C751.119 98.22 754.646 94.7729 754.646 90.5208C754.646 86.2686 751.119 82.8215 746.767 82.8215C742.415 82.8215 738.887 86.2686 738.887 90.5208C738.887 94.7729 742.415 98.22 746.767 98.22Z" fill="#D3D3D3"/>
<path d="M746.767 83.3683C750.807 83.3683 754.087 86.5727 754.087 90.5207C754.087 94.4687 750.807 97.6731 746.767 97.6731C742.726 97.6731 739.447 94.4687 739.447 90.5207C739.447 86.5727 742.726 83.3683 746.767 83.3683ZM746.767 82.2747C742.11 82.2747 738.327 85.9712 738.327 90.5207C738.327 95.0702 742.11 98.7667 746.767 98.7667C751.423 98.7667 755.206 95.0702 755.206 90.5207C755.206 85.9712 751.423 82.2747 746.767 82.2747Z" fill="#A8A8A8"/>
<path d="M729.272 81.356C724.929 81.356 721.392 77.9001 721.392 73.6567C721.392 69.4134 724.929 65.9575 729.272 65.9575C733.615 65.9575 737.152 69.4134 737.152 73.6567C737.152 77.9001 733.615 81.356 729.272 81.356Z" fill="#D3D3D3"/>
<path d="M729.272 66.5043C733.313 66.5043 736.592 69.7086 736.592 73.6567C736.592 77.6047 733.313 80.8091 729.272 80.8091C725.232 80.8091 721.952 77.6047 721.952 73.6567C721.952 69.7086 725.232 66.5043 729.272 66.5043ZM729.272 65.4106C724.616 65.4106 720.833 69.1071 720.833 73.6567C720.833 78.2062 724.616 81.9027 729.272 81.9027C733.928 81.9027 737.712 78.2062 737.712 73.6567C737.712 69.1071 733.928 65.4106 729.272 65.4106Z" fill="#A8A8A8"/>
<path d="M765.134 81.356C760.791 81.356 757.254 77.9001 757.254 73.6567C757.254 69.4134 760.791 65.9575 765.134 65.9575C769.477 65.9575 773.014 69.4134 773.014 73.6567C773.014 77.9001 769.477 81.356 765.134 81.356Z" fill="#D3D3D3"/>
<path d="M765.134 66.5043C769.175 66.5043 772.454 69.7086 772.454 73.6567C772.454 77.6047 769.175 80.8091 765.134 80.8091C761.094 80.8091 757.814 77.6047 757.814 73.6567C757.814 69.7086 761.094 66.5043 765.134 66.5043ZM765.134 65.4106C760.478 65.4106 756.695 69.1071 756.695 73.6567C756.695 78.2062 760.478 81.9027 765.134 81.9027C769.79 81.9027 773.574 78.2062 773.574 73.6567C773.574 69.1071 769.79 65.4106 765.134 65.4106Z" fill="#A8A8A8"/>
</g>
<defs>
<clipPath id="clip0_251_9592">
<rect width="800" height="316.893" fill="white"/>
</clipPath>
</defs>
</svg>
