<svg width="3543" height="1436" viewBox="0 0 3543 1436" fill="none" xmlns="http://www.w3.org/2000/svg">
<g clip-path="url(#clip0_251_9620)">
<path d="M1530.35 321.187V169.489H1405.07V51.3423H1232.17V169.44H1137.62V321.137H1232.17V608.575L1326.87 703.281H1526.64V555.845H1405.07V321.137H1530.35V321.187Z" fill="white"/>
<path d="M2068.04 560.405H1785.57C1775.75 560.405 1767.82 552.475 1767.82 542.663V495.186H2100.94V253.639C2067.49 220.187 2048.71 201.405 2015.26 167.953H1683.93C1650.47 201.405 1631.69 220.187 1598.24 253.639V617.595C1631.69 651.047 1650.47 669.829 1683.93 703.281H2068.04V560.405ZM1767.77 322.129H1932.15V393.988H1767.77V322.129Z" fill="white"/>
<path d="M2165.62 167.953V703.331H2335.2V322.129C2335.2 322.129 2514.69 319.106 2514.69 322.129V703.331H2684.27V259.636L2585.71 167.953H2375.39L2346.74 201.801C2346.74 201.801 2342.19 205.815 2339.06 204.081C2335.94 202.346 2336.64 195.606 2336.64 195.606V167.953H2165.57H2165.62Z" fill="white"/>
<path d="M1009.76 168.895H671.139C636.301 203.734 616.776 223.26 581.938 258.099V614.076C616.776 648.916 636.301 668.442 671.139 703.281H1009.76L1098.96 614.076V258.099L1009.76 168.895ZM932.5 555.449H762.373V320.642H932.5V555.449Z" fill="white"/>
<path d="M417.758 3.22129L0.988281 0V703.331H172.801V514.167H423.903L542.244 395.822V127.613L417.758 3.22129ZM370.035 342.051H174.684V176.031H370.035V342.051Z" fill="white"/>
<path d="M3115.37 1293.07H2832.89C2823.08 1293.07 2815.15 1285.14 2815.15 1275.33V1227.86H3148.27V986.308C3114.82 952.857 3096.04 934.074 3062.59 900.622H2731.25C2697.8 934.074 2679.02 952.857 2645.57 986.308V1350.26C2679.02 1383.72 2697.8 1402.5 2731.25 1435.95H3115.37V1293.07ZM2815.1 1054.8H2979.48V1126.66H2815.1V1054.8Z" fill="white"/>
<path d="M1098.76 1040.33H838.887V1188.7H960.598V1285.89H702.607V943.094H1098.76V777.619H630.849L535.453 873.018V1337.23C574.008 1375.79 595.615 1397.39 634.17 1435.95H1126.02V1040.33H1098.76Z" fill="white"/>
<path d="M1539.17 1435.21H1705.18V1000.28L1612.66 910.236H1243.07V1049H1545.36V1115.51H1277.76L1193.91 1210.91V1342.24C1193.91 1342.24 1280.24 1437.24 1280.24 1436C1280.24 1434.76 1499.92 1436 1499.92 1436L1539.17 1394.72V1435.26V1435.21ZM1537.34 1297.63H1357.3V1218.14H1537.34V1297.63Z" fill="white"/>
<path d="M2477.57 915.093H2285.99L2225.88 966.634L2174.34 915.093H1994.99L1952.57 960.637V915.093H1788.44V1436H1949.5V1062.68H2106.45V1436H2267.5V1062.68H2414.54V1436H2575.6V1000.43C2545.91 974.662 2499.97 934.718 2477.62 915.093H2477.57Z" fill="white"/>
<path d="M3541.45 572.596C3535.31 532.107 3513.55 388.983 3501.81 311.523C3476.48 125.977 3334.95 124.837 3334.95 124.837C3334.95 124.837 3216.16 123.995 3147.48 124.094C3078.79 123.995 2960.01 124.837 2960.01 124.837C2960.01 124.837 2818.47 125.927 2793.15 311.523C2781.7 386.951 2760.79 524.574 2754.05 569.176C2751.47 586.175 2751.52 603.471 2754.69 620.37C2759.7 647.231 2773.08 681.277 2808.07 695.302C2869.71 720.081 2920.41 683.21 2946.82 642.969C2966.1 616.009 3023.93 517.983 3023.93 517.983H3271.17C3271.17 517.983 3329 616.009 3348.28 642.969C3374.69 683.16 3425.39 720.081 3487.04 695.302C3529.66 678.155 3540.21 631.322 3542.64 604.016C3543.58 593.51 3543.14 583.003 3541.55 572.546L3541.45 572.596ZM3101.64 348.246C3101.64 360.487 3091.73 370.398 3079.49 370.398H3026.06V423.822C3026.06 436.063 3016.15 445.975 3003.91 445.975H2981.61C2969.37 445.975 2959.46 436.063 2959.46 423.822V370.398H2906.04C2893.8 370.398 2883.89 360.487 2883.89 348.246V325.945C2883.89 313.704 2893.8 303.792 2906.04 303.792H2959.46V250.368C2959.46 238.127 2969.37 228.216 2981.61 228.216H3003.91C3016.15 228.216 3026.06 238.127 3026.06 250.368V303.792H3079.49C3091.73 303.792 3101.64 313.704 3101.64 325.945V348.246ZM3229.84 366.186C3211.95 366.186 3197.43 351.665 3197.43 333.775C3197.43 315.884 3211.95 301.364 3229.84 301.364C3247.73 301.364 3262.25 315.884 3262.25 333.775C3262.25 351.665 3247.73 366.186 3229.84 366.186ZM3307.3 442.605C3289.41 442.605 3274.89 428.084 3274.89 410.194C3274.89 392.303 3289.41 377.783 3307.3 377.783C3325.19 377.783 3339.71 392.303 3339.71 410.194C3339.71 428.084 3325.19 442.605 3307.3 442.605ZM3307.3 291.65C3289.41 291.65 3274.89 277.13 3274.89 259.239C3274.89 241.349 3289.41 226.828 3307.3 226.828C3325.19 226.828 3339.71 241.349 3339.71 259.239C3339.71 277.13 3325.19 291.65 3307.3 291.65ZM3388.62 366.186C3370.73 366.186 3356.21 351.665 3356.21 333.775C3356.21 315.884 3370.73 301.364 3388.62 301.364C3406.51 301.364 3421.03 315.884 3421.03 333.775C3421.03 351.665 3406.51 366.186 3388.62 366.186Z" fill="white"/>
</g>
<defs>
<clipPath id="clip0_251_9620">
<rect width="3542" height="1436" fill="white" transform="translate(0.988281)"/>
</clipPath>
</defs>
</svg>
