<svg width="715" height="290" viewBox="0 0 715 290" fill="none" xmlns="http://www.w3.org/2000/svg">
<g clip-path="url(#clip0_197_4077)">
<path d="M308.609 64.8101V34.2001H283.329V10.3601H248.439V34.1901H229.359V64.8001H248.439V122.8L267.549 141.91H307.859V112.16H283.329V64.8001H308.609V64.8101Z" fill="#E60012"/>
<path d="M417.109 113.08H360.109C358.129 113.08 356.529 111.48 356.529 109.5V99.9199H423.749V51.1799C416.999 44.4299 413.209 40.6399 406.459 33.8899H339.599C332.849 40.6399 329.059 44.4299 322.309 51.1799V124.62C329.059 131.37 332.849 135.16 339.599 141.91H417.109V113.08ZM356.519 64.9999H389.689V79.4999H356.519V64.9999Z" fill="#E60012"/>
<path d="M436.799 33.8899V141.92H471.019V64.9999C471.019 64.9999 507.239 64.3899 507.239 64.9999V141.92H541.459V52.3899L521.569 33.8899H479.129L473.349 40.7199C473.349 40.7199 472.429 41.5299 471.799 41.1799C471.169 40.8299 471.309 39.4699 471.309 39.4699V33.8899H436.789H436.799Z" fill="#E60012"/>
<path d="M203.56 34.0801H135.23C128.2 41.1101 124.26 45.0501 117.23 52.0801V123.91C124.26 130.94 128.2 134.88 135.23 141.91H203.56L221.56 123.91V52.0801L203.56 34.0801ZM187.97 112.08H153.64V64.7001H187.97V112.08Z" fill="#E60012"/>
<path d="M84.1 0.65L0 0V141.92H34.67V103.75H85.34L109.22 79.87V25.75L84.1 0.65ZM74.47 69.02H35.05V35.52H74.47V69.02Z" fill="#E60012"/>
<path d="M628.448 260.92H571.448C569.468 260.92 567.868 259.32 567.868 257.34V247.76H635.088V199.02C628.338 192.27 624.548 188.48 617.798 181.73H550.938C544.188 188.48 540.398 192.27 533.648 199.02V272.46C540.398 279.21 544.188 283 550.938 289.75H628.448V260.92ZM567.858 212.84H601.028V227.34H567.858V212.84Z" fill="#404750"/>
<path d="M221.522 209.92H169.082V239.86H193.642V259.47H141.582V190.3H221.522V156.91H127.102L107.852 176.16V269.83C115.632 277.61 119.992 281.97 127.772 289.75H227.022V209.92H221.522Z" fill="#404750"/>
<path d="M310.389 289.6H343.889V201.84L325.219 183.67H250.639V211.67H311.639V225.09H257.639L240.719 244.34V270.84C240.719 270.84 258.139 290.01 258.139 289.76C258.139 289.51 302.469 289.76 302.469 289.76L310.389 281.43V289.61V289.6ZM310.019 261.84H273.689V245.8H310.019V261.84Z" fill="#404750"/>
<path d="M499.751 184.65H461.091L448.961 195.05L438.561 184.65H402.371L393.811 193.84V184.65H360.691V289.76H393.191V214.43H424.861V289.76H457.361V214.43H487.031V289.76H519.531V201.87C513.541 196.67 504.271 188.61 499.761 184.65H499.751Z" fill="#404750"/>
<path d="M714.43 115.54C713.19 107.37 708.8 78.49 706.43 62.86C701.32 25.42 672.76 25.19 672.76 25.19C672.76 25.19 648.79 25.02 634.93 25.04C621.07 25.02 597.1 25.19 597.1 25.19C597.1 25.19 568.54 25.41 563.43 62.86C561.12 78.08 556.9 105.85 555.54 114.85C555.02 118.28 555.03 121.77 555.67 125.18C556.68 130.6 559.38 137.47 566.44 140.3C578.88 145.3 589.11 137.86 594.44 129.74C598.33 124.3 610 104.52 610 104.52H659.89C659.89 104.52 671.56 124.3 675.45 129.74C680.78 137.85 691.01 145.3 703.45 140.3C712.05 136.84 714.18 127.39 714.67 121.88C714.86 119.76 714.77 117.64 714.45 115.53L714.43 115.54ZM625.68 70.27C625.68 72.74 623.68 74.74 621.21 74.74H610.43V85.52C610.43 87.99 608.43 89.99 605.96 89.99H601.46C598.99 89.99 596.99 87.99 596.99 85.52V74.74H586.21C583.74 74.74 581.74 72.74 581.74 70.27V65.77C581.74 63.3 583.74 61.3 586.21 61.3H596.99V50.52C596.99 48.05 598.99 46.05 601.46 46.05H605.96C608.43 46.05 610.43 48.05 610.43 50.52V61.3H621.21C623.68 61.3 625.68 63.3 625.68 65.77V70.27ZM651.55 73.89C647.94 73.89 645.01 70.96 645.01 67.35C645.01 63.74 647.94 60.81 651.55 60.81C655.16 60.81 658.09 63.74 658.09 67.35C658.09 70.96 655.16 73.89 651.55 73.89ZM667.18 89.31C663.57 89.31 660.64 86.38 660.64 82.77C660.64 79.16 663.57 76.23 667.18 76.23C670.79 76.23 673.72 79.16 673.72 82.77C673.72 86.38 670.79 89.31 667.18 89.31ZM667.18 58.85C663.57 58.85 660.64 55.92 660.64 52.31C660.64 48.7 663.57 45.77 667.18 45.77C670.79 45.77 673.72 48.7 673.72 52.31C673.72 55.92 670.79 58.85 667.18 58.85ZM683.59 73.89C679.98 73.89 677.05 70.96 677.05 67.35C677.05 63.74 679.98 60.81 683.59 60.81C687.2 60.81 690.13 63.74 690.13 67.35C690.13 70.96 687.2 73.89 683.59 73.89Z" fill="#404750"/>
</g>
<defs>
<clipPath id="clip0_197_4077">
<rect width="714.74" height="289.76" fill="white"/>
</clipPath>
</defs>
</svg>
