<svg width="24" height="25" viewBox="0 0 24 25" fill="none" xmlns="http://www.w3.org/2000/svg">
<path d="M7.02754 21.2434C6.93732 21.3389 6.86679 21.4512 6.81998 21.5739C6.77316 21.6967 6.75098 21.8274 6.75469 21.9587C6.75841 22.09 6.78795 22.2193 6.84163 22.3392C6.8953 22.4591 6.97207 22.5672 7.06754 22.6574C7.16301 22.7476 7.27532 22.8182 7.39805 22.865C7.52078 22.9118 7.65152 22.934 7.78283 22.9303C7.91413 22.9266 8.04341 22.897 8.1633 22.8433C8.28318 22.7897 8.39132 22.7129 8.48154 22.6174L16.9815 13.6174C17.1571 13.4317 17.2549 13.1859 17.2549 12.9304C17.2549 12.6749 17.1571 12.4291 16.9815 12.2434L8.48154 3.24242C8.39192 3.14485 8.2838 3.06607 8.16348 3.01065C8.04315 2.95522 7.91301 2.92426 7.78061 2.91956C7.64822 2.91485 7.51621 2.9365 7.39225 2.98325C7.2683 3.02999 7.15486 3.1009 7.05854 3.19186C6.96222 3.28281 6.88493 3.392 6.83117 3.51308C6.7774 3.63415 6.74823 3.76471 6.74534 3.89715C6.74246 4.0296 6.76592 4.1613 6.81437 4.2846C6.86281 4.4079 6.93527 4.52035 7.02754 4.61541L14.8795 12.9304L7.02754 21.2434Z" fill="black"/>
</svg>
