<svg width="24" height="25" viewBox="0 0 24 25" fill="none" xmlns="http://www.w3.org/2000/svg">
<path d="M11.9998 14.3571L7.0998 19.2571C6.91647 19.4404 6.68314 19.5321 6.3998 19.5321C6.11647 19.5321 5.88314 19.4404 5.6998 19.2571C5.51647 19.0737 5.4248 18.8404 5.4248 18.5571C5.4248 18.2737 5.51647 18.0404 5.6998 17.8571L10.5998 12.9571L5.6998 8.05708C5.51647 7.87375 5.4248 7.64041 5.4248 7.35708C5.4248 7.07375 5.51647 6.84041 5.6998 6.65708C5.88314 6.47375 6.11647 6.38208 6.3998 6.38208C6.68314 6.38208 6.91647 6.47375 7.0998 6.65708L11.9998 11.5571L16.8998 6.65708C17.0831 6.47375 17.3165 6.38208 17.5998 6.38208C17.8831 6.38208 18.1165 6.47375 18.2998 6.65708C18.4831 6.84041 18.5748 7.07375 18.5748 7.35708C18.5748 7.64041 18.4831 7.87375 18.2998 8.05708L13.3998 12.9571L18.2998 17.8571C18.4831 18.0404 18.5748 18.2737 18.5748 18.5571C18.5748 18.8404 18.4831 19.0737 18.2998 19.2571C18.1165 19.4404 17.8831 19.5321 17.5998 19.5321C17.3165 19.5321 17.0831 19.4404 16.8998 19.2571L11.9998 14.3571Z" fill="#9CA3AF"/>
</svg>
