<svg width="24" height="24" viewBox="0 0 24 24" fill="none" xmlns="http://www.w3.org/2000/svg">
<path d="M12 2.5C12.9283 2.5 13.8182 2.86901 14.4746 3.52539C15.131 4.18177 15.5 5.07174 15.5 6V7.5H19C19.1326 7.5 19.2597 7.55272 19.3535 7.64648C19.4473 7.74025 19.5 7.86739 19.5 8V19L19.4873 19.2471C19.4305 19.8194 19.1778 20.3573 18.7676 20.7676C18.2987 21.2364 17.663 21.5 17 21.5H7C6.33696 21.5 5.70126 21.2364 5.23242 20.7676C4.76358 20.2987 4.5 19.663 4.5 19V8C4.5 7.86739 4.55272 7.74025 4.64648 7.64648C4.74025 7.55272 4.86739 7.5 5 7.5H8.5V6C8.5 5.07174 8.86901 4.18177 9.52539 3.52539C10.1818 2.86901 11.0717 2.5 12 2.5ZM5.5 19C5.5 19.3978 5.65815 19.7792 5.93945 20.0605C6.22076 20.3419 6.60218 20.5 7 20.5H17C17.3978 20.5 17.7792 20.3419 18.0605 20.0605C18.3419 19.7792 18.5 19.3978 18.5 19V8.5H15.5V10C15.5 10.1326 15.4473 10.2597 15.3535 10.3535C15.2597 10.4473 15.1326 10.5 15 10.5C14.8674 10.5 14.7403 10.4473 14.6465 10.3535C14.5527 10.2597 14.5 10.1326 14.5 10V8.5H9.5V10C9.5 10.1326 9.44728 10.2597 9.35352 10.3535C9.25975 10.4473 9.13261 10.5 9 10.5C8.86739 10.5 8.74025 10.4473 8.64648 10.3535C8.55272 10.2597 8.5 10.1326 8.5 10V8.5H5.5V19ZM12 3.5C11.337 3.5 10.7013 3.76358 10.2324 4.23242C9.76358 4.70126 9.5 5.33696 9.5 6V7.5H14.5V6C14.5 5.33696 14.2364 4.70126 13.7676 4.23242C13.2987 3.76358 12.663 3.5 12 3.5Z" stroke="#404750"/>
</svg>
