<svg width="24" height="24" viewBox="0 0 24 24" fill="none" xmlns="http://www.w3.org/2000/svg">
<path d="M16.686 4.13989C18.1619 4.14013 19.5771 4.72706 20.6206 5.77075C21.6642 6.81455 22.2506 8.23028 22.2505 9.7063C22.2503 11.182 21.6641 12.5973 20.6206 13.6409L20.6196 13.6418L19.2974 14.9612C19.2621 15.0133 19.2224 15.0634 19.1763 15.1096L12.7202 21.5667C12.5327 21.7542 12.2784 21.8596 12.0132 21.8596C12.0086 21.8596 12.0041 21.8587 11.9995 21.8586C11.9954 21.8587 11.991 21.8596 11.9868 21.8596C11.7217 21.8595 11.4673 21.7541 11.2798 21.5667L4.82373 15.1096C4.77715 15.063 4.73614 15.0129 4.70068 14.9602L3.38037 13.6409C2.86344 13.1241 2.45311 12.5105 2.17334 11.8352C1.89364 11.16 1.74951 10.4362 1.74951 9.70532C1.74954 8.97442 1.89358 8.25068 2.17334 7.57544C2.45313 6.90014 2.86341 6.28656 3.38037 5.76978C3.89698 5.25322 4.51014 4.84335 5.18506 4.56372C5.86019 4.28406 6.58418 4.13992 7.31494 4.13989C8.04576 4.13989 8.76963 4.28404 9.44482 4.56372C10.12 4.8434 10.7337 5.25302 11.2505 5.76978L12.0005 6.51978L12.7505 5.76978C13.7943 4.72629 15.2101 4.13978 16.686 4.13989ZM3.74951 9.70532C3.74951 10.1734 3.84187 10.6371 4.021 11.0696C4.20023 11.5022 4.46326 11.8957 4.79443 12.2268L6.25146 13.6829C6.29505 13.7265 6.33326 13.7743 6.36768 13.8245L11.9995 19.4583L17.6294 13.8274C17.6645 13.7759 17.7048 13.7276 17.7495 13.6829L19.2065 12.2268L19.3276 12.0989C19.9201 11.4448 20.2504 10.592 20.2505 9.70532C20.2504 8.75995 19.8749 7.85339 19.2065 7.18481C18.5379 6.51611 17.6307 6.13997 16.6851 6.13989C15.7397 6.13991 14.8331 6.51554 14.1646 7.18384L12.7075 8.64087C12.317 9.03136 11.684 9.0313 11.2935 8.64087L9.83643 7.18384C9.50538 6.85278 9.11173 6.59054 8.6792 6.41138C8.24671 6.23225 7.78306 6.13989 7.31494 6.13989C6.84683 6.13992 6.38316 6.23223 5.95068 6.41138C5.51831 6.5905 5.12539 6.85293 4.79443 7.18384C4.46326 7.51489 4.20023 7.90846 4.021 8.34106C3.84181 8.77359 3.74954 9.23715 3.74951 9.70532Z" fill="#404750"/>
</svg>
